<svg xmlns="http://www.w3.org/2000/svg" xmlns:xlink="http://www.w3.org/1999/xlink" xmlns:lucid="lucid" width="630" height="780"><g transform="translate(15 -10.00000000000006)" lucid:page-tab-id="0_0"><path d="M88.85 36c0-3.3 2.68-6 6-6h88.87c3.3 0 6 2.7 6 6v34.2c0 3.3-2.7 6-6 6H94.85c-3.32 0-6-2.7-6-6z" stroke="#5e5e5e" stroke-width="2" fill="#fff"/><use xlink:href="#a" transform="matrix(1,0,0,1,100.84782608695654,42.00000000000006) translate(3.7066666666666777 14.714999999999996)"/><use xlink:href="#b" transform="matrix(1,0,0,1,100.84782608695654,42.00000000000006) translate(43.760000000000005 14.714999999999996)"/><path d="M219.35 36c0-3.3 2.68-6 6-6h151.9c3.32 0 6 2.7 6 6v34.2c0 3.3-2.68 6-6 6h-151.9c-3.32 0-6-2.7-6-6z" stroke="#5e5e5e" stroke-width="2" fill="#fff"/><use xlink:href="#c" transform="matrix(1,0,0,1,231.34782608695662,42.000000000000064) translate(17.08000000000002 11.839999999999996)"/><use xlink:href="#d" transform="matrix(1,0,0,1,231.34782608695662,42.000000000000064) translate(63.25333333333334 11.839999999999996)"/><use xlink:href="#e" transform="matrix(1,0,0,1,231.34782608695662,42.000000000000064) translate(78.93333333333334 11.839999999999996)"/><use xlink:href="#f" transform="matrix(1,0,0,1,231.34782608695662,42.000000000000064) translate(3.7733333333333405 27.83999999999999)"/><use xlink:href="#g" transform="matrix(1,0,0,1,231.34782608695662,42.000000000000064) translate(84.05333333333333 27.83999999999999)"/><path d="M112.17 105.3c0-3.32 2.7-6 6-6h51.05c3.3 0 6 2.68 6 6v34.2c0 3.3-2.7 6-6 6h-51.05c-3.3 0-6-2.7-6-6z" stroke="#5e5e5e" stroke-width="2" fill="#fff"/><use xlink:href="#h" transform="matrix(1,0,0,1,124.17391304347822,111.29379633242297) translate(0.7466666666666733 14.714999999999996)"/><path d="M5 175.28c0-3.3 2.7-6 6-6h126.7c3.3 0 6 2.7 6 6v34.54c0 3.32-2.7 6-6 6H11c-3.3 0-6-2.68-6-6z" stroke="#5e5e5e" stroke-width="2" fill="#fff"/><use xlink:href="#i" transform="matrix(1,0,0,1,17.00000000000007,181.2812569782365) translate(28.526666666666678 11.839999999999996)"/><use xlink:href="#j" transform="matrix(1,0,0,1,17.00000000000007,181.2812569782365) translate(79.31333333333333 11.839999999999996)"/><use xlink:href="#k" transform="matrix(1,0,0,1,17.00000000000007,181.2812569782365) translate(30.000000000000007 27.83999999999999)"/><path d="M156.3 175.28c0-3.3 2.7-6 6-6H289c3.3 0 6 2.7 6 6v34.54c0 3.32-2.7 6-6 6H162.3c-3.3 0-6-2.68-6-6z" stroke="#5e5e5e" stroke-width="2" fill="#fff"/><use xlink:href="#l" transform="matrix(1,0,0,1,168.30434782608694,181.2812569782365) translate(2.160000000000018 14.714999999999996)"/><use xlink:href="#m" transform="matrix(1,0,0,1,168.30434782608694,181.2812569782365) translate(32.54666666666668 14.714999999999996)"/><use xlink:href="#d" transform="matrix(1,0,0,1,168.30434782608694,181.2812569782365) translate(55.36000000000001 14.714999999999996)"/><use xlink:href="#n" transform="matrix(1,0,0,1,168.30434782608694,181.2812569782365) translate(71.03999999999999 14.714999999999996)"/><path d="M61.74 256.12c0-3.3 2.7-6 6-6h151.9c3.33 0 6 2.7 6 6v34.54c0 3.32-2.67 6-6 6H67.75c-3.3 0-6-2.68-6-6z" stroke="#5e5e5e" stroke-width="2" fill="#fff"/><use xlink:href="#o" transform="matrix(1,0,0,1,73.7391304347826,262.12401936606335) translate(1.0133333333333496 14.714999999999996)"/><use xlink:href="#p" transform="matrix(1,0,0,1,73.7391304347826,262.12401936606335) translate(54.85333333333333 14.714999999999996)"/><use xlink:href="#q" transform="matrix(1,0,0,1,73.7391304347826,262.12401936606335) translate(87.90666666666667 14.714999999999996)"/><path d="M61.74 325.42c0-3.32 2.7-6 6-6h151.9c3.33 0 6 2.68 6 6v34.54c0 3.3-2.67 6-6 6H67.75c-3.3 0-6-2.7-6-6z" stroke="#5e5e5e" stroke-width="2" fill="#fff"/><use xlink:href="#r" transform="matrix(1,0,0,1,73.7391304347826,331.4178156984862) translate(12.386666666666684 11.839999999999996)"/><use xlink:href="#s" transform="matrix(1,0,0,1,73.7391304347826,331.4178156984862) translate(45.45333333333334 11.839999999999996)"/><use xlink:href="#t" transform="matrix(1,0,0,1,73.7391304347826,331.4178156984862) translate(64.32 11.839999999999996)"/><use xlink:href="#u" transform="matrix(1,0,0,1,73.7391304347826,331.4178156984862) translate(74.94666666666666 11.839999999999996)"/><use xlink:href="#v" transform="matrix(1,0,0,1,73.7391304347826,331.4178156984862) translate(23.700000000000017 27.83999999999999)"/><use xlink:href="#w" transform="matrix(1,0,0,1,73.7391304347826,331.4178156984862) translate(54.31333333333334 27.83999999999999)"/><use xlink:href="#x" transform="matrix(1,0,0,1,73.7391304347826,331.4178156984862) translate(70.1 27.83999999999999)"/><path d="M5 397.52c0-3.3 2.7-6 6-6h265.4c3.3 0 6 2.7 6 6v86.67c0 3.3-2.7 6-6 6H11c-3.3 0-6-2.7-6-6z" stroke="#5e5e5e" stroke-width="2" fill="#fff"/><use xlink:href="#y" transform="matrix(1,0,0,1,17,403.52113408765774) translate(12.940000000000026 11.839999999999996)"/><use xlink:href="#v" transform="matrix(1,0,0,1,17,403.52113408765774) translate(63.180000000000014 11.839999999999996)"/><use xlink:href="#z" transform="matrix(1,0,0,1,17,403.52113408765774) translate(93.79333333333334 11.839999999999996)"/><use xlink:href="#A" transform="matrix(1,0,0,1,17,403.52113408765774) translate(144.07333333333332 11.839999999999996)"/><use xlink:href="#B" transform="matrix(1,0,0,1,17,403.52113408765774) translate(180.35333333333332 11.839999999999996)"/><use xlink:href="#C" transform="matrix(1,0,0,1,17,403.52113408765774) translate(0.2866666666667044 27.83999999999999)"/><use xlink:href="#D" transform="matrix(1,0,0,1,17,403.52113408765774) translate(42.6466666666667 27.83999999999999)"/><use xlink:href="#E" transform="matrix(1,0,0,1,17,403.52113408765774) translate(72.70000000000002 27.83999999999999)"/><use xlink:href="#F" transform="matrix(1,0,0,1,17,403.52113408765774) translate(231.2466666666666 27.83999999999999)"/><use xlink:href="#G" transform="matrix(1,0,0,1,17,403.52113408765774) translate(12.0266666666667 43.83999999999999)"/><use xlink:href="#H" transform="matrix(1,0,0,1,17,403.52113408765774) translate(33.28000000000003 43.83999999999999)"/><use xlink:href="#I" transform="matrix(1,0,0,1,17,403.52113408765774) translate(61.066666666666684 43.83999999999999)"/><use xlink:href="#J" transform="matrix(1,0,0,1,17,403.52113408765774) translate(116.61333333333334 43.83999999999999)"/><use xlink:href="#K" transform="matrix(1,0,0,1,17,403.52113408765774) translate(145.25333333333333 43.83999999999999)"/><use xlink:href="#L" transform="matrix(1,0,0,1,17,403.52113408765774) translate(188.54666666666665 43.83999999999999)"/><use xlink:href="#M" transform="matrix(1,0,0,1,17,403.52113408765774) translate(10.126666666666708 59.83999999999998)"/><use xlink:href="#N" transform="matrix(1,0,0,1,17,403.52113408765774) translate(52.726666666666695 59.83999999999998)"/><use xlink:href="#O" transform="matrix(1,0,0,1,17,403.52113408765774) translate(92.08666666666669 59.83999999999998)"/><use xlink:href="#P" transform="matrix(1,0,0,1,17,403.52113408765774) translate(142.87333333333333 59.83999999999998)"/><use xlink:href="#Q" transform="matrix(1,0,0,1,17,403.52113408765774) translate(171.3 59.83999999999998)"/><use xlink:href="#R" transform="matrix(1,0,0,1,17,403.52113408765774) translate(200.16666666666663 59.83999999999998)"/><use xlink:href="#S" transform="matrix(1,0,0,1,17,403.52113408765774) translate(56.07333333333335 75.83999999999997)"/><use xlink:href="#T" transform="matrix(1,0,0,1,17,403.52113408765774) translate(81.99333333333334 75.83999999999997)"/><path d="M93.26 521.75c0-3.3 2.7-6 6-6h88.87c3.3 0 6 2.7 6 6v34.54c0 3.3-2.7 6-6 6H99.26c-3.3 0-6-2.7-6-6z" stroke="#5e5e5e" stroke-width="2" fill="#fff"/><use xlink:href="#U" transform="matrix(1,0,0,1,105.26086956521738,527.7502386403514) translate(10.753333333333341 11.839999999999996)"/><use xlink:href="#V" transform="matrix(1,0,0,1,105.26086956521738,527.7502386403514) translate(24.92666666666667 27.83999999999999)"/><path d="M139.28 78.2v1.62" stroke="#5e5e5e" stroke-width="2" fill="none"/><path d="M140.28 78.22h-2V77.2h2z" fill="#5e5e5e"/><path d="M139.26 95.06l-4.6-14.27h9.26z" stroke="#5e5e5e" stroke-width="2" fill="#5e5e5e"/><path d="M143.7 147.5v3.9c0 3.3-2.7 6-6 6H81.95" stroke="#5e5e5e" stroke-width="2" fill="none"/><path d="M144.7 147.52h-2v-1.03h2z" fill="#5e5e5e"/><path d="M76.2 165.63l4.37-14.35 7.6 5.3z" stroke="#5e5e5e" stroke-width="2" fill="#5e5e5e"/><path d="M143.7 147.5v3.9c0 3.3 2.68 6 6 6h68.35" stroke="#5e5e5e" stroke-width="2" fill="none"/><path d="M144.7 147.52h-2v-1.03h2z" fill="#5e5e5e"/><path d="M223.8 165.63l-11.97-9.05 7.6-5.3z" stroke="#5e5e5e" stroke-width="2" fill="#5e5e5e"/><path d="M74.35 217.82v9.15c0 3.32 2.68 6 6 6h61" stroke="#5e5e5e" stroke-width="2" fill="none"/><path d="M75.35 217.85h-2v-1.03h2z" fill="#5e5e5e"/><path d="M143.23 245.92l-6.64-13.45 9.16-1.33z" stroke="#5e5e5e" stroke-width="2" fill="#5e5e5e"/><path d="M225.65 217.82v9.15c0 3.32-2.68 6-6 6h-73.6" stroke="#5e5e5e" stroke-width="2" fill="none"/><path d="M226.65 217.85h-2v-1.03h2z" fill="#5e5e5e"/><path d="M144.16 245.92l-2.53-14.78 9.17 1.33z" stroke="#5e5e5e" stroke-width="2" fill="#5e5e5e"/><path d="M143.7 298.66v1.26" stroke="#5e5e5e" stroke-width="2" fill="none"/><path d="M144.7 298.7h-2v-1.04h2z" fill="#5e5e5e"/><path d="M143.7 315.18l-4.64-14.26h9.27z" stroke="#5e5e5e" stroke-width="2" fill="#5e5e5e"/><path d="M143.7 367.96v4.06" stroke="#5e5e5e" stroke-width="2" fill="none"/><path d="M144.7 367.98h-2v-1.02h2z" fill="#5e5e5e"/><path d="M143.7 387.28l-4.64-14.26h9.27z" stroke="#5e5e5e" stroke-width="2" fill="#5e5e5e"/><path d="M143.7 492.2v4.05" stroke="#5e5e5e" stroke-width="2" fill="none"/><path d="M144.7 492.2h-2v-1h2z" fill="#5e5e5e"/><path d="M143.7 511.5l-4.64-14.25h9.27z" stroke="#5e5e5e" stroke-width="2" fill="#5e5e5e"/><path d="M191.72 53.1h8.13" stroke="#5e5e5e" stroke-width="2" fill="none"/><path d="M191.74 54.1h-1.02v-2h1.02z" fill="#5e5e5e"/><path d="M215.1 53.1l-14.26 4.63v-9.27z" stroke="#5e5e5e" stroke-width="2" fill="#5e5e5e"/><path d="M93.26 591.04c0-3.3 2.7-6 6-6h88.87c3.3 0 6 2.7 6 6v34.54c0 3.32-2.7 6-6 6H99.26c-3.3 0-6-2.68-6-6z" stroke="#5e5e5e" stroke-width="2" fill="#fff"/><g><use xlink:href="#W" transform="matrix(1,0,0,1,105.26086956521738,597.0440349727743) translate(7.726666666666674 11.839999999999996)"/><use xlink:href="#X" transform="matrix(1,0,0,1,105.26086956521738,597.0440349727743) translate(38.339999999999996 11.839999999999996)"/><use xlink:href="#d" transform="matrix(1,0,0,1,105.26086956521738,597.0440349727743) translate(17.660000000000007 27.83999999999999)"/><use xlink:href="#Y" transform="matrix(1,0,0,1,105.26086956521738,597.0440349727743) translate(33.34 27.83999999999999)"/></g><path d="M36.52 660.34c0-3.32 2.7-6 6-6h202.35c3.3 0 6 2.68 6 6v34.54c0 3.3-2.7 6-6 6H42.52c-3.3 0-6-2.7-6-6z" stroke="#5e5e5e" stroke-width="2" fill="#fff"/><g><use xlink:href="#Z" transform="matrix(1,0,0,1,48.52173913043481,666.3378313051973) translate(10.01333333333335 11.839999999999996)"/><use xlink:href="#d" transform="matrix(1,0,0,1,48.52173913043481,666.3378313051973) translate(58.853333333333346 11.839999999999996)"/><use xlink:href="#aa" transform="matrix(1,0,0,1,48.52173913043481,666.3378313051973) translate(74.53333333333335 11.839999999999996)"/><use xlink:href="#ab" transform="matrix(1,0,0,1,48.52173913043481,666.3378313051973) translate(108.37333333333333 11.839999999999996)"/><use xlink:href="#ac" transform="matrix(1,0,0,1,48.52173913043481,666.3378313051973) translate(168.10666666666665 11.839999999999996)"/><use xlink:href="#ad" transform="matrix(1,0,0,1,48.52173913043481,666.3378313051973) translate(64.21333333333334 27.83999999999999)"/><use xlink:href="#d" transform="matrix(1,0,0,1,48.52173913043481,666.3378313051973) translate(85.10666666666667 27.83999999999999)"/><use xlink:href="#Y" transform="matrix(1,0,0,1,48.52173913043481,666.3378313051973) translate(100.78666666666666 27.83999999999999)"/></g><path d="M36.52 729.8c0-3.3 2.7-6 6-6h202.35c3.3 0 6 2.7 6 6V764c0 3.3-2.7 6-6 6H42.52c-3.3 0-6-2.7-6-6z" stroke="#5e5e5e" stroke-width="2" fill="#fff"/><g><use xlink:href="#ae" transform="matrix(1,0,0,1,48.521739130434824,735.8041357783846) translate(37.51333333333335 14.714999999999996)"/><use xlink:href="#af" transform="matrix(1,0,0,1,48.521739130434824,735.8041357783846) translate(77.68666666666667 14.714999999999996)"/><use xlink:href="#ag" transform="matrix(1,0,0,1,48.521739130434824,735.8041357783846) translate(104.84666666666666 14.714999999999996)"/><use xlink:href="#ah" transform="matrix(1,0,0,1,48.521739130434824,735.8041357783846) translate(131.24666666666667 14.714999999999996)"/></g><path d="M143.7 564.3v1.24" stroke="#5e5e5e" stroke-width="2" fill="none"/><path d="M144.7 564.32h-2v-1.03h2z" fill="#5e5e5e"/><path d="M143.7 580.8l-4.64-14.26h9.27z" stroke="#5e5e5e" stroke-width="2" fill="#5e5e5e"/><path d="M143.7 633.58v1.26" stroke="#5e5e5e" stroke-width="2" fill="none"/><path d="M144.7 633.6h-2v-1.02h2z" fill="#5e5e5e"/><path d="M143.7 650.1l-4.64-14.27h9.27z" stroke="#5e5e5e" stroke-width="2" fill="#5e5e5e"/><path d="M143.7 702.88v1.42" stroke="#5e5e5e" stroke-width="2" fill="none"/><path d="M144.7 702.9h-2v-1.02h2z" fill="#5e5e5e"/><path d="M143.7 719.57l-4.64-14.27h9.27z" stroke="#5e5e5e" stroke-width="2" fill="#5e5e5e"/><path d="M317.6 397.52c0-3.3 2.7-6 6-6H589c3.3 0 6 2.7 6 6v86.67c0 3.3-2.7 6-6 6H323.6c-3.3 0-6-2.7-6-6z" stroke="#5e5e5e" stroke-width="2" fill="#fff"/><g><use xlink:href="#ai" transform="matrix(1,0,0,1,329.608695652174,403.52113408765774) translate(2.8000000000000256 16.527499999999996)"/><use xlink:href="#aj" transform="matrix(1,0,0,1,329.608695652174,403.52113408765774) translate(78.22666666666667 16.527499999999996)"/><use xlink:href="#ak" transform="matrix(1,0,0,1,329.608695652174,403.52113408765774) translate(115.2 16.527499999999996)"/><use xlink:href="#al" transform="matrix(1,0,0,1,329.608695652174,403.52113408765774) translate(168.36 16.527499999999996)"/><use xlink:href="#am" transform="matrix(1,0,0,1,329.608695652174,403.52113408765774) translate(235.34666666666664 16.527499999999996)"/><use xlink:href="#an" transform="matrix(1,0,0,1,329.608695652174,403.52113408765774) translate(12.340000000000032 32.52749999999999)"/><use xlink:href="#ao" transform="matrix(1,0,0,1,329.608695652174,403.52113408765774) translate(58.08666666666669 32.52749999999999)"/><use xlink:href="#ap" transform="matrix(1,0,0,1,329.608695652174,403.52113408765774) translate(87.08666666666667 32.52749999999999)"/><use xlink:href="#aq" transform="matrix(1,0,0,1,329.608695652174,403.52113408765774) translate(132.96666666666667 32.52749999999999)"/><use xlink:href="#ar" transform="matrix(1,0,0,1,329.608695652174,403.52113408765774) translate(177.00666666666666 32.52749999999999)"/><use xlink:href="#as" transform="matrix(1,0,0,1,329.608695652174,403.52113408765774) translate(193.95333333333332 32.52749999999999)"/><use xlink:href="#at" transform="matrix(1,0,0,1,329.608695652174,403.52113408765774) translate(220.81999999999996 32.52749999999999)"/><use xlink:href="#au" transform="matrix(1,0,0,1,329.608695652174,403.52113408765774) translate(57.613333333333344 48.52749999999998)"/><use xlink:href="#ak" transform="matrix(1,0,0,1,329.608695652174,403.52113408765774) translate(94.88 48.52749999999998)"/><use xlink:href="#av" transform="matrix(1,0,0,1,329.608695652174,403.52113408765774) translate(148.04 48.52749999999998)"/><use xlink:href="#aw" transform="matrix(1,0,0,1,329.608695652174,403.52113408765774) translate(19.246666666666698 64.52749999999997)"/><use xlink:href="#ag" transform="matrix(1,0,0,1,329.608695652174,403.52113408765774) translate(135.6466666666667 64.52749999999997)"/><use xlink:href="#ax" transform="matrix(1,0,0,1,329.608695652174,403.52113408765774) translate(162.04666666666668 64.52749999999997)"/></g><path d="M316.6 440.85" stroke="#5e5e5e" stroke-width="2" fill="none"/><path fill="#5e5e5e"/><path d="M313.37 440.85l-14.26 4.64v-9.28z" stroke="#5e5e5e" stroke-width="2" fill="#5e5e5e"/><path d="M284.4 440.85h13.7" stroke="#5e5e5e" stroke-width="2" fill="none"/><path d="M284.42 441.85h-1.03v-2h1.02z" fill="#5e5e5e"/><path d="M313.37 440.85l-14.26 4.64v-9.28z" stroke="#5e5e5e" stroke-width="2" fill="#5e5e5e"/><path d="M456.3 389.52V348.7c0-3.33-2.68-6-6-6H245.15" stroke="#5e5e5e" stroke-width="2" fill="none"/><path d="M457.3 390.52h-2v-1.02h2z" fill="#5e5e5e"/><path d="M229.9 342.7l14.25-4.65v9.27z" stroke="#5e5e5e" stroke-width="2" fill="#5e5e5e"/><defs><path fill="#333" d="M565-750h91V0h-91v-334H166V0H75v-750h91v334h399v-334" id="ay"/><path fill="#333" d="M528-250c0 141-103 260-244 260C142 10 40-109 40-250c0-143 102-260 244-260 141 0 244 119 244 260zm-401 0c-2 98 60 181 157 181 96 0 157-84 157-181s-62-184-157-182c-97-2-159 84-157 182" id="az"/><path fill="#333" d="M472-419c33-50 93-91 172-91 106-2 186 82 186 188V0h-89v-312c2-66-53-120-119-120-68 0-125 57-125 125V0h-89v-312c2-66-53-120-119-120-67 0-126 58-126 125V0H75v-500h81l4 61c39-47 89-71 152-71 77 0 131 39 160 91" id="aA"/><path fill="#333" d="M278-510c152 0 239 126 226 289H126c8 89 60 154 155 154 76-3 102-30 138-83l62 43C438-29 370 10 278 10 133 13 40-103 40-249s94-261 238-261zm147 220c-8-83-57-144-145-144-90 0-140 63-152 144h297" id="aB"/><g id="a"><use transform="matrix(0.013333333333333329,0,0,0.013333333333333329,0,0)" xlink:href="#ay"/><use transform="matrix(0.013333333333333329,0,0,0.013333333333333329,9.746666666666664,0)" xlink:href="#az"/><use transform="matrix(0.013333333333333329,0,0,0.013333333333333329,17.30666666666666,0)" xlink:href="#aA"/><use transform="matrix(0.013333333333333329,0,0,0.013333333333333329,29.31999999999999,0)" xlink:href="#aB"/></g><path fill="#333" d="M561-539c0 114-97 209-211 209H166V0H75v-750h275c113-4 211 98 211 211zm-84 1c0-72-62-131-132-131H166v263h179c72 1 132-58 132-132" id="aC"/><path fill="#333" d="M379-326c1-72-53-109-124-109-59 0-103 23-134 69l-61-54c41-60 108-90 199-90 120 0 207 67 207 190V0h-78l-5-71c-61 54-122 81-185 81-87 2-155-66-153-153 5-115 102-167 243-139l91 15v-59zM172-210c-66 38-36 141 46 141 52 0 106-25 161-76v-57c-54-8-166-32-207-8" id="aD"/><path fill="#333" d="M40-250c0-142 90-263 230-260 68 0 124 28 167 83l4-73h80V-6c3 144-93 259-236 256-57 0-109-16-154-47v-96c45 43 99 65 160 65 91 0 145-80 143-178v-63c-43 53-97 79-164 79C131 13 40-109 40-250zm87 0c-2 97 60 183 157 181 76 0 134-63 150-128v-106c-16-67-73-128-150-129-97-2-159 84-157 182" id="aE"/><g id="b"><use transform="matrix(0.013333333333333329,0,0,0.013333333333333329,0,0)" xlink:href="#aC"/><use transform="matrix(0.013333333333333329,0,0,0.013333333333333329,7.1599999999999975,0)" xlink:href="#aD"/><use transform="matrix(0.013333333333333329,0,0,0.013333333333333329,14.319999999999995,0)" xlink:href="#aE"/><use transform="matrix(0.013333333333333329,0,0,0.013333333333333329,22.26666666666666,0)" xlink:href="#aB"/></g><path fill="#333" d="M783-375c0 207-160 385-366 385C210 10 51-167 51-375s159-385 366-385c206 0 366 178 366 385zm-646 0c0 163 118 298 280 298s279-135 279-298-117-298-279-298-280 135-280 298" id="aF"/><path fill="#333" d="M555-250c0 141-91 263-230 260-66 0-120-26-163-77v317H75v-750h87v67c43-51 97-77 163-77 139-3 230 119 230 260zm-393 54c15 66 72 127 149 127 97 2 160-83 158-181 2-98-61-184-158-182-77 0-134 62-149 128v108" id="aG"/><path fill="#333" d="M241 10C152 12 88-51 88-140v-291H23v-69h65v-170h88v170h136v69H177v291c-9 76 79 94 120 51l49 60c-25 26-60 39-105 39" id="aH"/><path fill="#333" d="M195-650c1 31-27 58-58 57-31 1-60-26-59-57-1-32 28-60 59-59 30-1 59 29 58 59zM92 0v-500h88V0H92" id="aI"/><path fill="#333" d="M298-432c-71 0-135 59-135 130V0H75v-500h81l4 66c42-51 96-76 162-76 109-3 195 85 195 194V0h-89v-306c2-71-58-126-130-126" id="aJ"/><g id="c"><use transform="matrix(0.013333333333333329,0,0,0.013333333333333329,0,0)" xlink:href="#aF"/><use transform="matrix(0.013333333333333329,0,0,0.013333333333333329,11.119999999999996,0)" xlink:href="#aG"/><use transform="matrix(0.013333333333333329,0,0,0.013333333333333329,19.01333333333333,0)" xlink:href="#aH"/><use transform="matrix(0.013333333333333329,0,0,0.013333333333333329,23.66666666666666,0)" xlink:href="#aI"/><use transform="matrix(0.013333333333333329,0,0,0.013333333333333329,27.306666666666658,0)" xlink:href="#az"/><use transform="matrix(0.013333333333333329,0,0,0.013333333333333329,34.86666666666665,0)" xlink:href="#aJ"/></g><g id="d"><use transform="matrix(0.013333333333333329,0,0,0.013333333333333329,0,0)" xlink:href="#aH"/><use transform="matrix(0.013333333333333329,0,0,0.013333333333333329,4.6533333333333315,0)" xlink:href="#az"/></g><path fill="#333" d="M127-250c-2 102 58 187 158 185 49 0 89-18 120-54v88c-35 27-78 41-129 41C131 13 40-104 40-250s91-263 236-260c51 0 94 13 129 40v89c-33-36-73-54-120-54-100-2-160 83-158 185" id="aK"/><path fill="#333" d="M298-432c-71 0-135 59-135 130V0H75v-750h88v313c41-49 94-73 159-73 109-3 195 85 195 194V0h-89v-306c2-71-58-126-130-126" id="aL"/><g id="e"><use transform="matrix(0.013333333333333329,0,0,0.013333333333333329,0,0)" xlink:href="#aK"/><use transform="matrix(0.013333333333333329,0,0,0.013333333333333329,5.933333333333332,0)" xlink:href="#aL"/><use transform="matrix(0.013333333333333329,0,0,0.013333333333333329,13.773333333333328,0)" xlink:href="#aD"/><use transform="matrix(0.013333333333333329,0,0,0.013333333333333329,20.933333333333326,0)" xlink:href="#aJ"/><use transform="matrix(0.013333333333333329,0,0,0.013333333333333329,28.773333333333323,0)" xlink:href="#aE"/><use transform="matrix(0.013333333333333329,0,0,0.013333333333333329,36.719999999999985,0)" xlink:href="#aB"/></g><path fill="#333" d="M624 0l-61-157H179L118 0H19l301-750h102L723 0h-99zM208-234h326L371-656" id="aM"/><path fill="#333" d="M400-230C500-122 379 10 242 10 164 10 71-24 37-67l46-60c36 50 162 86 233 46 38-22 39-78 8-101-87-59-262-40-262-182 0-122 156-176 278-130 32 10 58 23 79 40l-49 60c-41-40-120-59-184-31-48 21-39 87 2 106 66 30 165 38 212 89" id="aN"/><path fill="#333" d="M555-250c0 141-91 263-230 260-69 0-125-27-167-82l-4 72H75v-750h87v317c43-51 97-77 163-77 139-3 230 119 230 260zm-393 54c15 66 72 127 149 127 97 2 160-83 158-181 2-98-61-184-158-182-77 0-134 62-149 128v108" id="aO"/><path fill="#333" d="M232 10C141 12 79-51 79-140v-610h88l1 610c-9 76 79 94 120 51l49 60c-25 26-60 39-105 39" id="aP"/><path fill="#333" d="M296-69c71 0 134-58 134-129v-302h89V13c0 145-91 246-241 243-67 0-125-16-174-48v-96c50 43 110 65 181 65 128 3 156-104 145-241-40 49-92 74-156 74C167 13 77-82 77-189v-311h88v302c-2 70 60 129 131 129" id="aQ"/><g id="f"><use transform="matrix(0.013333333333333329,0,0,0.013333333333333329,0,0)" xlink:href="#aM"/><use transform="matrix(0.013333333333333329,0,0,0.013333333333333329,9.906666666666663,0)" xlink:href="#aK"/><use transform="matrix(0.013333333333333329,0,0,0.013333333333333329,15.74666666666666,0)" xlink:href="#aK"/><use transform="matrix(0.013333333333333329,0,0,0.013333333333333329,21.58666666666666,0)" xlink:href="#aB"/><use transform="matrix(0.013333333333333329,0,0,0.013333333333333329,28.773333333333323,0)" xlink:href="#aN"/><use transform="matrix(0.013333333333333329,0,0,0.013333333333333329,34.97333333333332,0)" xlink:href="#aN"/><use transform="matrix(0.013333333333333329,0,0,0.013333333333333329,41.29333333333332,0)" xlink:href="#aI"/><use transform="matrix(0.013333333333333329,0,0,0.013333333333333329,44.93333333333332,0)" xlink:href="#aO"/><use transform="matrix(0.013333333333333329,0,0,0.013333333333333329,52.86666666666665,0)" xlink:href="#aI"/><use transform="matrix(0.013333333333333329,0,0,0.013333333333333329,56.506666666666646,0)" xlink:href="#aP"/><use transform="matrix(0.013333333333333329,0,0,0.013333333333333329,60.86666666666666,0)" xlink:href="#aI"/><use transform="matrix(0.013333333333333329,0,0,0.013333333333333329,64.34666666666665,0)" xlink:href="#aH"/><use transform="matrix(0.013333333333333329,0,0,0.013333333333333329,68.89333333333332,0)" xlink:href="#aQ"/></g><path fill="#333" d="M490-669H166v253h282v82H166V0H75v-750h415v81" id="aR"/><path fill="#333" d="M296-69c71 0 134-58 134-129v-302h89V0h-81l-5-67c-41 51-94 77-159 77C167 13 77-82 77-189v-311h88v302c-2 70 60 129 131 129" id="aS"/><path fill="#333" d="M374-416c-101-53-211 30-211 136V0H75v-500h81l4 76c40-57 89-86 148-86 46 0 82 10 109 30" id="aT"/><g id="g"><use transform="matrix(0.013333333333333329,0,0,0.013333333333333329,0,0)" xlink:href="#aR"/><use transform="matrix(0.013333333333333329,0,0,0.013333333333333329,6.559999999999998,0)" xlink:href="#aB"/><use transform="matrix(0.013333333333333329,0,0,0.013333333333333329,13.826666666666663,0)" xlink:href="#aD"/><use transform="matrix(0.013333333333333329,0,0,0.013333333333333329,20.986666666666657,0)" xlink:href="#aH"/><use transform="matrix(0.013333333333333329,0,0,0.013333333333333329,25.533333333333324,0)" xlink:href="#aS"/><use transform="matrix(0.013333333333333329,0,0,0.013333333333333329,33.45333333333332,0)" xlink:href="#aT"/><use transform="matrix(0.013333333333333329,0,0,0.013333333333333329,38.66666666666665,0)" xlink:href="#aB"/><use transform="matrix(0.013333333333333329,0,0,0.013333333333333329,45.85333333333332,0)" xlink:href="#aN"/></g><g id="h"><use transform="matrix(0.013333333333333329,0,0,0.013333333333333329,0,0)" xlink:href="#aC"/><use transform="matrix(0.013333333333333329,0,0,0.013333333333333329,7.1599999999999975,0)" xlink:href="#az"/><use transform="matrix(0.013333333333333329,0,0,0.013333333333333329,14.719999999999995,0)" xlink:href="#aG"/><use transform="matrix(0.013333333333333329,0,0,0.013333333333333329,22.653333333333325,0)" xlink:href="#aS"/><use transform="matrix(0.013333333333333329,0,0,0.013333333333333329,30.573333333333323,0)" xlink:href="#aG"/></g><path fill="#333" d="M137-375c0 163 118 302 280 298 80 0 148-31 204-93v110c-61 47-129 70-204 70C210 16 51-167 51-375s159-391 366-385c75 0 143 23 204 70v110c-57-62-125-93-204-93-162-4-280 135-280 298" id="aU"/><g id="i"><use transform="matrix(0.013333333333333329,0,0,0.013333333333333329,0,0)" xlink:href="#aU"/><use transform="matrix(0.013333333333333329,0,0,0.013333333333333329,8.666666666666664,0)" xlink:href="#az"/><use transform="matrix(0.013333333333333329,0,0,0.013333333333333329,16.226666666666663,0)" xlink:href="#aJ"/><use transform="matrix(0.013333333333333329,0,0,0.013333333333333329,24.06666666666666,0)" xlink:href="#aN"/><use transform="matrix(0.013333333333333329,0,0,0.013333333333333329,30.386666666666656,0)" xlink:href="#aS"/><use transform="matrix(0.013333333333333329,0,0,0.013333333333333329,38.30666666666665,0)" xlink:href="#aP"/><use transform="matrix(0.013333333333333329,0,0,0.013333333333333329,42.66666666666665,0)" xlink:href="#aH"/></g><use transform="matrix(0.013333333333333329,0,0,0.013333333333333329,0,0)" xlink:href="#aD" id="j"/><path fill="#333" d="M660-375C660-175 485 0 285 0H75v-750h210c200-7 375 175 375 375zm-91 0c0-157-128-299-284-294H166v588h119c156 5 284-137 284-294" id="aV"/><g id="k"><use transform="matrix(0.013333333333333329,0,0,0.013333333333333329,0,0)" xlink:href="#aV"/><use transform="matrix(0.013333333333333329,0,0,0.013333333333333329,9.479999999999997,0)" xlink:href="#aB"/><use transform="matrix(0.013333333333333329,0,0,0.013333333333333329,16.66666666666666,0)" xlink:href="#aN"/><use transform="matrix(0.013333333333333329,0,0,0.013333333333333329,22.986666666666657,0)" xlink:href="#aI"/><use transform="matrix(0.013333333333333329,0,0,0.013333333333333329,26.626666666666658,0)" xlink:href="#aE"/><use transform="matrix(0.013333333333333329,0,0,0.013333333333333329,34.57333333333332,0)" xlink:href="#aJ"/><use transform="matrix(0.013333333333333329,0,0,0.013333333333333329,42.41333333333332,0)" xlink:href="#aB"/><use transform="matrix(0.013333333333333329,0,0,0.013333333333333329,49.679999999999986,0)" xlink:href="#aT"/></g><path fill="#333" d="M526-750v80H321V0h-91v-670H25v-80h501" id="aW"/><path fill="#333" d="M495-58V50L163-248V0H75v-750h88v445l212-195h112L248-280" id="aX"/><g id="l"><use transform="matrix(0.013333333333333329,0,0,0.013333333333333329,0,0)" xlink:href="#aW"/><use transform="matrix(0.013333333333333329,0,0,0.013333333333333329,5.733333333333332,0)" xlink:href="#aD"/><use transform="matrix(0.013333333333333329,0,0,0.013333333333333329,12.893333333333329,0)" xlink:href="#aX"/><use transform="matrix(0.013333333333333329,0,0,0.013333333333333329,19.65333333333333,0)" xlink:href="#aB"/></g><path fill="#333" d="M735-750h96V0h-90v-618L452-184 166-617V0H75v-750h97l281 418" id="aY"/><g id="m"><use transform="matrix(0.013333333333333329,0,0,0.013333333333333329,0,0)" xlink:href="#aY"/><use transform="matrix(0.013333333333333329,0,0,0.013333333333333329,12.079999999999997,0)" xlink:href="#aB"/></g><path fill="#333" d="M572-256C637-20 351 71 158-30 107-57 69-92 42-135l66-67c28 73 118 125 220 125 108 0 196-70 149-171-73-158-373-91-387-317-11-181 224-236 380-167 44 19 79 45 105 76l-61 62c-39-58-102-87-191-87-109 0-192 106-109 180 105 95 314 88 358 245" id="aZ"/><g id="n"><use transform="matrix(0.013333333333333329,0,0,0.013333333333333329,0,0)" xlink:href="#aZ"/><use transform="matrix(0.013333333333333329,0,0,0.013333333333333329,8.386666666666663,0)" xlink:href="#aB"/><use transform="matrix(0.013333333333333329,0,0,0.013333333333333329,15.653333333333329,0)" xlink:href="#aD"/><use transform="matrix(0.013333333333333329,0,0,0.013333333333333329,22.813333333333325,0)" xlink:href="#aT"/><use transform="matrix(0.013333333333333329,0,0,0.013333333333333329,28.026666666666657,0)" xlink:href="#aK"/><use transform="matrix(0.013333333333333329,0,0,0.013333333333333329,33.95999999999999,0)" xlink:href="#aL"/></g><g id="o"><use transform="matrix(0.013333333333333329,0,0,0.013333333333333329,0,0)" xlink:href="#aF"/><use transform="matrix(0.013333333333333329,0,0,0.013333333333333329,11.119999999999996,0)" xlink:href="#aS"/><use transform="matrix(0.013333333333333329,0,0,0.013333333333333329,19.039999999999992,0)" xlink:href="#aH"/><use transform="matrix(0.013333333333333329,0,0,0.013333333333333329,23.693333333333324,0)" xlink:href="#aG"/><use transform="matrix(0.013333333333333329,0,0,0.013333333333333329,31.626666666666658,0)" xlink:href="#aS"/><use transform="matrix(0.013333333333333329,0,0,0.013333333333333329,39.54666666666665,0)" xlink:href="#aH"/><use transform="matrix(0.013333333333333329,0,0,0.013333333333333329,44.05333333333331,0)" xlink:href="#aN"/></g><path fill="#333" d="M342-654c-38-60-129-30-129 47v107h131v69H213V0h-89v-431H40v-69h84v-112c-9-132 188-203 268-96" id="ba"/><g id="p"><use transform="matrix(0.013333333333333329,0,0,0.013333333333333329,0,0)" xlink:href="#ba"/><use transform="matrix(0.013333333333333329,0,0,0.013333333333333329,4.799999999999999,0)" xlink:href="#aT"/><use transform="matrix(0.013333333333333329,0,0,0.013333333333333329,10.013333333333332,0)" xlink:href="#az"/><use transform="matrix(0.013333333333333329,0,0,0.013333333333333329,17.57333333333333,0)" xlink:href="#aA"/></g><g id="q"><use transform="matrix(0.013333333333333329,0,0,0.013333333333333329,0,0)" xlink:href="#aT"/><use transform="matrix(0.013333333333333329,0,0,0.013333333333333329,5.213333333333332,0)" xlink:href="#aB"/><use transform="matrix(0.013333333333333329,0,0,0.013333333333333329,12.439999999999996,0)" xlink:href="#aH"/><use transform="matrix(0.013333333333333329,0,0,0.013333333333333329,17.093333333333327,0)" xlink:href="#aD"/><use transform="matrix(0.013333333333333329,0,0,0.013333333333333329,24.253333333333323,0)" xlink:href="#aI"/><use transform="matrix(0.013333333333333329,0,0,0.013333333333333329,27.893333333333324,0)" xlink:href="#aP"/><use transform="matrix(0.013333333333333329,0,0,0.013333333333333329,32.213333333333324,0)" xlink:href="#aB"/><use transform="matrix(0.013333333333333329,0,0,0.013333333333333329,39.47999999999999,0)" xlink:href="#aT"/><use transform="matrix(0.013333333333333329,0,0,0.013333333333333329,44.75999999999999,0)" xlink:href="#aN"/></g><g id="r"><use transform="matrix(0.013333333333333329,0,0,0.013333333333333329,0,0)" xlink:href="#aU"/><use transform="matrix(0.013333333333333329,0,0,0.013333333333333329,8.906666666666665,0)" xlink:href="#aP"/><use transform="matrix(0.013333333333333329,0,0,0.013333333333333329,13.266666666666662,0)" xlink:href="#aI"/><use transform="matrix(0.013333333333333329,0,0,0.013333333333333329,16.90666666666666,0)" xlink:href="#aK"/><use transform="matrix(0.013333333333333329,0,0,0.013333333333333329,22.83999999999999,0)" xlink:href="#aX"/></g><g id="s"><use transform="matrix(0.013333333333333329,0,0,0.013333333333333329,0,0)" xlink:href="#az"/><use transform="matrix(0.013333333333333329,0,0,0.013333333333333329,7.559999999999998,0)" xlink:href="#aJ"/></g><use transform="matrix(0.013333333333333329,0,0,0.013333333333333329,0,0)" xlink:href="#aD" id="t"/><g id="u"><use transform="matrix(0.013333333333333329,0,0,0.013333333333333329,0,0)" xlink:href="#aU"/><use transform="matrix(0.013333333333333329,0,0,0.013333333333333329,8.906666666666665,0)" xlink:href="#aP"/><use transform="matrix(0.013333333333333329,0,0,0.013333333333333329,13.226666666666663,0)" xlink:href="#az"/><use transform="matrix(0.013333333333333329,0,0,0.013333333333333329,20.746666666666663,0)" xlink:href="#aH"/><use transform="matrix(0.013333333333333329,0,0,0.013333333333333329,25.399999999999995,0)" xlink:href="#aL"/><use transform="matrix(0.013333333333333329,0,0,0.013333333333333329,33.239999999999995,0)" xlink:href="#aI"/><use transform="matrix(0.013333333333333329,0,0,0.013333333333333329,36.879999999999995,0)" xlink:href="#aJ"/><use transform="matrix(0.013333333333333329,0,0,0.013333333333333329,44.71999999999999,0)" xlink:href="#aE"/></g><path fill="#333" d="M75 0v-750h91V0H75" id="bb"/><g id="v"><use transform="matrix(0.013333333333333329,0,0,0.013333333333333329,0,0)" xlink:href="#bb"/><use transform="matrix(0.013333333333333329,0,0,0.013333333333333329,3.2133333333333325,0)" xlink:href="#aH"/><use transform="matrix(0.013333333333333329,0,0,0.013333333333333329,7.8666666666666645,0)" xlink:href="#aB"/><use transform="matrix(0.013333333333333329,0,0,0.013333333333333329,15.133333333333328,0)" xlink:href="#aA"/></g><g id="w"><use transform="matrix(0.013333333333333329,0,0,0.013333333333333329,0,0)" xlink:href="#az"/><use transform="matrix(0.013333333333333329,0,0,0.013333333333333329,7.413333333333331,0)" xlink:href="#ba"/></g><g id="x"><use transform="matrix(0.013333333333333329,0,0,0.013333333333333329,0,0)" xlink:href="#bb"/><use transform="matrix(0.013333333333333329,0,0,0.013333333333333329,3.2133333333333325,0)" xlink:href="#aJ"/><use transform="matrix(0.013333333333333329,0,0,0.013333333333333329,10.906666666666663,0)" xlink:href="#aH"/><use transform="matrix(0.013333333333333329,0,0,0.013333333333333329,15.559999999999995,0)" xlink:href="#aB"/><use transform="matrix(0.013333333333333329,0,0,0.013333333333333329,22.82666666666666,0)" xlink:href="#aT"/><use transform="matrix(0.013333333333333329,0,0,0.013333333333333329,28.039999999999992,0)" xlink:href="#aB"/><use transform="matrix(0.013333333333333329,0,0,0.013333333333333329,35.22666666666666,0)" xlink:href="#aN"/><use transform="matrix(0.013333333333333329,0,0,0.013333333333333329,41.54666666666666,0)" xlink:href="#aH"/></g><g id="y"><use transform="matrix(0.013333333333333329,0,0,0.013333333333333329,0,0)" xlink:href="#aV"/><use transform="matrix(0.013333333333333329,0,0,0.013333333333333329,9.479999999999997,0)" xlink:href="#aI"/><use transform="matrix(0.013333333333333329,0,0,0.013333333333333329,13.119999999999996,0)" xlink:href="#aN"/><use transform="matrix(0.013333333333333329,0,0,0.013333333333333329,19.439999999999994,0)" xlink:href="#aG"/><use transform="matrix(0.013333333333333329,0,0,0.013333333333333329,27.373333333333324,0)" xlink:href="#aP"/><use transform="matrix(0.013333333333333329,0,0,0.013333333333333329,31.693333333333324,0)" xlink:href="#aD"/><use transform="matrix(0.013333333333333329,0,0,0.013333333333333329,38.853333333333325,0)" xlink:href="#aQ"/></g><path fill="#333" d="M207-452c1 31-27 60-58 59-31 1-60-28-59-59-1-30 29-59 59-58 30-1 59 28 58 58zm0 403c1 31-27 60-58 59-31 1-60-28-59-59-1-30 29-59 59-58 30-1 59 28 58 58" id="bc"/><g id="z"><use transform="matrix(0.013333333333333329,0,0,0.013333333333333329,0,0)" xlink:href="#aV"/><use transform="matrix(0.013333333333333329,0,0,0.013333333333333329,9.479999999999997,0)" xlink:href="#aB"/><use transform="matrix(0.013333333333333329,0,0,0.013333333333333329,16.706666666666663,0)" xlink:href="#aH"/><use transform="matrix(0.013333333333333329,0,0,0.013333333333333329,21.359999999999996,0)" xlink:href="#aD"/><use transform="matrix(0.013333333333333329,0,0,0.013333333333333329,28.519999999999992,0)" xlink:href="#aI"/><use transform="matrix(0.013333333333333329,0,0,0.013333333333333329,32.15999999999999,0)" xlink:href="#aP"/><use transform="matrix(0.013333333333333329,0,0,0.013333333333333329,36.51999999999999,0)" xlink:href="#aN"/><use transform="matrix(0.013333333333333329,0,0,0.013333333333333329,42.83999999999999,0)" xlink:href="#bc"/></g><path fill="#333" d="M99-107c52 0 73 54 73 109 2 79-47 187-125 184v-44c40 3 71-62 70-101 0-21-6-32-19-32-31 1-59-27-58-58-1-31 27-59 59-58" id="bd"/><g id="A"><use transform="matrix(0.013333333333333329,0,0,0.013333333333333329,0,0)" xlink:href="#aG"/><use transform="matrix(0.013333333333333329,0,0,0.013333333333333329,7.933333333333331,0)" xlink:href="#aT"/><use transform="matrix(0.013333333333333329,0,0,0.013333333333333329,13.25333333333333,0)" xlink:href="#aI"/><use transform="matrix(0.013333333333333329,0,0,0.013333333333333329,16.89333333333333,0)" xlink:href="#aK"/><use transform="matrix(0.013333333333333329,0,0,0.013333333333333329,22.733333333333327,0)" xlink:href="#aB"/><use transform="matrix(0.013333333333333329,0,0,0.013333333333333329,29.99999999999999,0)" xlink:href="#bd"/></g><g id="B"><use transform="matrix(0.013333333333333329,0,0,0.013333333333333329,0,0)" xlink:href="#aA"/><use transform="matrix(0.013333333333333329,0,0,0.013333333333333329,12.01333333333333,0)" xlink:href="#aD"/><use transform="matrix(0.013333333333333329,0,0,0.013333333333333329,19.17333333333333,0)" xlink:href="#aH"/><use transform="matrix(0.013333333333333329,0,0,0.013333333333333329,23.82666666666666,0)" xlink:href="#aB"/><use transform="matrix(0.013333333333333329,0,0,0.013333333333333329,31.09333333333333,0)" xlink:href="#aT"/><use transform="matrix(0.013333333333333329,0,0,0.013333333333333329,36.41333333333333,0)" xlink:href="#aI"/><use transform="matrix(0.013333333333333329,0,0,0.013333333333333329,40.05333333333333,0)" xlink:href="#aD"/><use transform="matrix(0.013333333333333329,0,0,0.013333333333333329,47.213333333333324,0)" xlink:href="#aP"/><use transform="matrix(0.013333333333333329,0,0,0.013333333333333329,51.57333333333332,0)" xlink:href="#aN"/><use transform="matrix(0.013333333333333329,0,0,0.013333333333333329,57.893333333333324,0)" xlink:href="#bd"/></g><path fill="#333" d="M40-250c0-141 91-263 230-260 67 0 122 26 164 78v-318h86V0h-79l-4-72c-43 55-98 82-167 82C131 13 40-109 40-250zm87 0c-2 98 60 183 157 181 77 0 135-61 150-127v-108c-15-66-73-128-150-128-97-2-159 84-157 182" id="be"/><g id="C"><use transform="matrix(0.013333333333333329,0,0,0.013333333333333329,0,0)" xlink:href="#aO"/><use transform="matrix(0.013333333333333329,0,0,0.013333333333333329,7.933333333333331,0)" xlink:href="#aT"/><use transform="matrix(0.013333333333333329,0,0,0.013333333333333329,13.146666666666663,0)" xlink:href="#aD"/><use transform="matrix(0.013333333333333329,0,0,0.013333333333333329,20.30666666666666,0)" xlink:href="#aJ"/><use transform="matrix(0.013333333333333329,0,0,0.013333333333333329,28.146666666666658,0)" xlink:href="#be"/><use transform="matrix(0.013333333333333329,0,0,0.013333333333333329,36.07999999999999,0)" xlink:href="#bd"/></g><path fill="#333" d="M48 0v-62l308-364H54v-74h419v60L165-74h315V0H48" id="bf"/><g id="D"><use transform="matrix(0.013333333333333329,0,0,0.013333333333333329,0,0)" xlink:href="#aN"/><use transform="matrix(0.013333333333333329,0,0,0.013333333333333329,6.319999999999998,0)" xlink:href="#aI"/><use transform="matrix(0.013333333333333329,0,0,0.013333333333333329,9.959999999999997,0)" xlink:href="#bf"/><use transform="matrix(0.013333333333333329,0,0,0.013333333333333329,16.50666666666666,0)" xlink:href="#aB"/><use transform="matrix(0.013333333333333329,0,0,0.013333333333333329,23.773333333333326,0)" xlink:href="#bd"/></g><path fill="#333" d="M-18 250L511-750h84L68 250h-86" id="bg"/><path fill="#333" d="M399-500h94L293 0h-85L8-500h94l149 396" id="bh"/><path fill="#333" d="M610-500h98L537 0h-97l-83-238L277 0h-96L9-500h100l125 394 82-247-51-147h87l131 396" id="bi"/><g id="E"><use transform="matrix(0.013333333333333329,0,0,0.013333333333333329,0,0)" xlink:href="#aO"/><use transform="matrix(0.013333333333333329,0,0,0.013333333333333329,7.933333333333331,0)" xlink:href="#aP"/><use transform="matrix(0.013333333333333329,0,0,0.013333333333333329,12.25333333333333,0)" xlink:href="#az"/><use transform="matrix(0.013333333333333329,0,0,0.013333333333333329,19.81333333333333,0)" xlink:href="#aE"/><use transform="matrix(0.013333333333333329,0,0,0.013333333333333329,27.75999999999999,0)" xlink:href="#bg"/><use transform="matrix(0.013333333333333329,0,0,0.013333333333333329,35.639999999999986,0)" xlink:href="#aK"/><use transform="matrix(0.013333333333333329,0,0,0.013333333333333329,41.47999999999998,0)" xlink:href="#az"/><use transform="matrix(0.013333333333333329,0,0,0.013333333333333329,49.03999999999998,0)" xlink:href="#aA"/><use transform="matrix(0.013333333333333329,0,0,0.013333333333333329,61.0533333333333,0)" xlink:href="#aA"/><use transform="matrix(0.013333333333333329,0,0,0.013333333333333329,73.06666666666663,0)" xlink:href="#aB"/><use transform="matrix(0.013333333333333329,0,0,0.013333333333333329,80.3333333333333,0)" xlink:href="#aJ"/><use transform="matrix(0.013333333333333329,0,0,0.013333333333333329,88.02666666666664,0)" xlink:href="#aH"/><use transform="matrix(0.013333333333333329,0,0,0.013333333333333329,92.53333333333332,0)" xlink:href="#aN"/><use transform="matrix(0.013333333333333329,0,0,0.013333333333333329,98.85333333333331,0)" xlink:href="#bg"/><use transform="matrix(0.013333333333333329,0,0,0.013333333333333329,106.7333333333333,0)" xlink:href="#aT"/><use transform="matrix(0.013333333333333329,0,0,0.013333333333333329,111.94666666666663,0)" xlink:href="#aB"/><use transform="matrix(0.013333333333333329,0,0,0.013333333333333329,119.2133333333333,0)" xlink:href="#bh"/><use transform="matrix(0.013333333333333329,0,0,0.013333333333333329,125.89333333333329,0)" xlink:href="#aI"/><use transform="matrix(0.013333333333333329,0,0,0.013333333333333329,129.53333333333327,0)" xlink:href="#aB"/><use transform="matrix(0.013333333333333329,0,0,0.013333333333333329,136.79999999999993,0)" xlink:href="#bi"/><use transform="matrix(0.013333333333333329,0,0,0.013333333333333329,145.9466666666666,0)" xlink:href="#aN"/><use transform="matrix(0.013333333333333329,0,0,0.013333333333333329,152.2666666666666,0)" xlink:href="#bd"/></g><g id="F"><use transform="matrix(0.013333333333333329,0,0,0.013333333333333329,0,0)" xlink:href="#aH"/><use transform="matrix(0.013333333333333329,0,0,0.013333333333333329,4.6533333333333315,0)" xlink:href="#aI"/><use transform="matrix(0.013333333333333329,0,0,0.013333333333333329,8.29333333333333,0)" xlink:href="#aG"/><use transform="matrix(0.013333333333333329,0,0,0.013333333333333329,16.14666666666666,0)" xlink:href="#aN"/></g><g id="G"><use transform="matrix(0.013333333333333329,0,0,0.013333333333333329,0,0)" xlink:href="#ba"/><use transform="matrix(0.013333333333333329,0,0,0.013333333333333329,4.906666666666665,0)" xlink:href="#az"/><use transform="matrix(0.013333333333333329,0,0,0.013333333333333329,12.466666666666663,0)" xlink:href="#aT"/></g><g id="H"><use transform="matrix(0.013333333333333329,0,0,0.013333333333333329,0,0)" xlink:href="#aS"/><use transform="matrix(0.013333333333333329,0,0,0.013333333333333329,7.919999999999997,0)" xlink:href="#aN"/><use transform="matrix(0.013333333333333329,0,0,0.013333333333333329,14.239999999999995,0)" xlink:href="#aB"/><use transform="matrix(0.013333333333333329,0,0,0.013333333333333329,21.50666666666666,0)" xlink:href="#bd"/></g><g id="I"><use transform="matrix(0.013333333333333329,0,0,0.013333333333333329,0,0)" xlink:href="#aH"/><use transform="matrix(0.013333333333333329,0,0,0.013333333333333329,4.6533333333333315,0)" xlink:href="#aD"/><use transform="matrix(0.013333333333333329,0,0,0.013333333333333329,11.813333333333329,0)" xlink:href="#aI"/><use transform="matrix(0.013333333333333329,0,0,0.013333333333333329,15.453333333333328,0)" xlink:href="#aP"/><use transform="matrix(0.013333333333333329,0,0,0.013333333333333329,19.773333333333326,0)" xlink:href="#az"/><use transform="matrix(0.013333333333333329,0,0,0.013333333333333329,27.333333333333325,0)" xlink:href="#aT"/><use transform="matrix(0.013333333333333329,0,0,0.013333333333333329,32.65333333333332,0)" xlink:href="#aI"/><use transform="matrix(0.013333333333333329,0,0,0.013333333333333329,36.29333333333332,0)" xlink:href="#aJ"/><use transform="matrix(0.013333333333333329,0,0,0.013333333333333329,44.13333333333332,0)" xlink:href="#aE"/></g><path fill="#333" d="M279-755c154 0 267 148 201 299-27 66-99 75-142 122-27 25-16 76-18 123h-81c-4-77 3-150 47-181 56-40 134-54 134-155 0-77-63-130-141-130s-139 58-139 134H60c-3-120 98-212 219-212zm63 706c1 32-28 60-59 59-30 1-59-28-58-59-1-29 29-59 58-58 30-1 60 28 59 58" id="bj"/><g id="J"><use transform="matrix(0.013333333333333329,0,0,0.013333333333333329,0,0)" xlink:href="#aX"/><use transform="matrix(0.013333333333333329,0,0,0.013333333333333329,6.759999999999998,0)" xlink:href="#aI"/><use transform="matrix(0.013333333333333329,0,0,0.013333333333333329,10.239999999999997,0)" xlink:href="#aH"/><use transform="matrix(0.013333333333333329,0,0,0.013333333333333329,14.893333333333329,0)" xlink:href="#bj"/><use transform="matrix(0.013333333333333329,0,0,0.013333333333333329,22.359999999999992,0)" xlink:href="#bd"/></g><g id="K"><use transform="matrix(0.013333333333333329,0,0,0.013333333333333329,0,0)" xlink:href="#bh"/><use transform="matrix(0.013333333333333329,0,0,0.013333333333333329,6.679999999999998,0)" xlink:href="#aI"/><use transform="matrix(0.013333333333333329,0,0,0.013333333333333329,10.319999999999997,0)" xlink:href="#aT"/><use transform="matrix(0.013333333333333329,0,0,0.013333333333333329,15.839999999999995,0)" xlink:href="#aH"/><use transform="matrix(0.013333333333333329,0,0,0.013333333333333329,20.38666666666666,0)" xlink:href="#aS"/><use transform="matrix(0.013333333333333329,0,0,0.013333333333333329,28.306666666666658,0)" xlink:href="#aD"/><use transform="matrix(0.013333333333333329,0,0,0.013333333333333329,35.466666666666654,0)" xlink:href="#aP"/></g><g id="L"><use transform="matrix(0.013333333333333329,0,0,0.013333333333333329,0,0)" xlink:href="#aI"/><use transform="matrix(0.013333333333333329,0,0,0.013333333333333329,3.639999999999999,0)" xlink:href="#aJ"/><use transform="matrix(0.013333333333333329,0,0,0.013333333333333329,11.479999999999997,0)" xlink:href="#aK"/><use transform="matrix(0.013333333333333329,0,0,0.013333333333333329,17.413333333333327,0)" xlink:href="#aP"/><use transform="matrix(0.013333333333333329,0,0,0.013333333333333329,21.599999999999994,0)" xlink:href="#aS"/><use transform="matrix(0.013333333333333329,0,0,0.013333333333333329,29.51999999999999,0)" xlink:href="#aN"/><use transform="matrix(0.013333333333333329,0,0,0.013333333333333329,35.83999999999999,0)" xlink:href="#aI"/><use transform="matrix(0.013333333333333329,0,0,0.013333333333333329,39.47999999999999,0)" xlink:href="#bh"/><use transform="matrix(0.013333333333333329,0,0,0.013333333333333329,46.15999999999999,0)" xlink:href="#aB"/></g><g id="M"><use transform="matrix(0.013333333333333329,0,0,0.013333333333333329,0,0)" xlink:href="#aA"/><use transform="matrix(0.013333333333333329,0,0,0.013333333333333329,12.01333333333333,0)" xlink:href="#az"/><use transform="matrix(0.013333333333333329,0,0,0.013333333333333329,19.573333333333327,0)" xlink:href="#be"/><use transform="matrix(0.013333333333333329,0,0,0.013333333333333329,27.506666666666657,0)" xlink:href="#aB"/><use transform="matrix(0.013333333333333329,0,0,0.013333333333333329,34.77333333333332,0)" xlink:href="#aP"/></g><g id="N"><use transform="matrix(0.013333333333333329,0,0,0.013333333333333329,0,0)" xlink:href="#bh"/><use transform="matrix(0.013333333333333329,0,0,0.013333333333333329,6.679999999999998,0)" xlink:href="#aI"/><use transform="matrix(0.013333333333333329,0,0,0.013333333333333329,10.319999999999997,0)" xlink:href="#be"/><use transform="matrix(0.013333333333333329,0,0,0.013333333333333329,18.253333333333327,0)" xlink:href="#aB"/><use transform="matrix(0.013333333333333329,0,0,0.013333333333333329,25.51999999999999,0)" xlink:href="#az"/><use transform="matrix(0.013333333333333329,0,0,0.013333333333333329,33.079999999999984,0)" xlink:href="#bd"/></g><path fill="#333" d="M100-466L90-750h84l-10 284h-64zm171 0l-9-284h83l-9 284h-65" id="bk"/><g id="O"><use transform="matrix(0.013333333333333329,0,0,0.013333333333333329,0,0)" xlink:href="#bk"/><use transform="matrix(0.013333333333333329,0,0,0.013333333333333329,5.813333333333332,0)" xlink:href="#aC"/><use transform="matrix(0.013333333333333329,0,0,0.013333333333333329,12.97333333333333,0)" xlink:href="#aB"/><use transform="matrix(0.013333333333333329,0,0,0.013333333333333329,20.239999999999995,0)" xlink:href="#az"/><use transform="matrix(0.013333333333333329,0,0,0.013333333333333329,27.79999999999999,0)" xlink:href="#aG"/><use transform="matrix(0.013333333333333329,0,0,0.013333333333333329,35.73333333333333,0)" xlink:href="#aP"/><use transform="matrix(0.013333333333333329,0,0,0.013333333333333329,40.05333333333333,0)" xlink:href="#aB"/></g><g id="P"><use transform="matrix(0.013333333333333329,0,0,0.013333333333333329,0,0)" xlink:href="#bi"/><use transform="matrix(0.013333333333333329,0,0,0.013333333333333329,9.559999999999997,0)" xlink:href="#aL"/><use transform="matrix(0.013333333333333329,0,0,0.013333333333333329,17.399999999999995,0)" xlink:href="#az"/></g><g id="Q"><use transform="matrix(0.013333333333333329,0,0,0.013333333333333329,0,0)" xlink:href="#aD"/><use transform="matrix(0.013333333333333329,0,0,0.013333333333333329,7.1599999999999975,0)" xlink:href="#aP"/><use transform="matrix(0.013333333333333329,0,0,0.013333333333333329,11.519999999999996,0)" xlink:href="#aN"/><use transform="matrix(0.013333333333333329,0,0,0.013333333333333329,17.839999999999993,0)" xlink:href="#az"/></g><g id="R"><use transform="matrix(0.013333333333333329,0,0,0.013333333333333329,0,0)" xlink:href="#aO"/><use transform="matrix(0.013333333333333329,0,0,0.013333333333333329,7.933333333333331,0)" xlink:href="#az"/><use transform="matrix(0.013333333333333329,0,0,0.013333333333333329,15.493333333333329,0)" xlink:href="#aS"/><use transform="matrix(0.013333333333333329,0,0,0.013333333333333329,23.413333333333327,0)" xlink:href="#aE"/><use transform="matrix(0.013333333333333329,0,0,0.013333333333333329,31.35999999999999,0)" xlink:href="#aL"/><use transform="matrix(0.013333333333333329,0,0,0.013333333333333329,39.05333333333332,0)" xlink:href="#aH"/></g><g id="S"><use transform="matrix(0.013333333333333329,0,0,0.013333333333333329,0,0)" xlink:href="#aH"/><use transform="matrix(0.013333333333333329,0,0,0.013333333333333329,4.6533333333333315,0)" xlink:href="#aL"/><use transform="matrix(0.013333333333333329,0,0,0.013333333333333329,12.493333333333329,0)" xlink:href="#aI"/><use transform="matrix(0.013333333333333329,0,0,0.013333333333333329,16.133333333333326,0)" xlink:href="#aN"/></g><g id="T"><use transform="matrix(0.013333333333333329,0,0,0.013333333333333329,0,0)" xlink:href="#aT"/><use transform="matrix(0.013333333333333329,0,0,0.013333333333333329,5.213333333333332,0)" xlink:href="#aB"/><use transform="matrix(0.013333333333333329,0,0,0.013333333333333329,12.479999999999997,0)" xlink:href="#aK"/><use transform="matrix(0.013333333333333329,0,0,0.013333333333333329,18.319999999999993,0)" xlink:href="#az"/><use transform="matrix(0.013333333333333329,0,0,0.013333333333333329,25.879999999999992,0)" xlink:href="#aA"/><use transform="matrix(0.013333333333333329,0,0,0.013333333333333329,37.893333333333324,0)" xlink:href="#aA"/><use transform="matrix(0.013333333333333329,0,0,0.013333333333333329,49.90666666666665,0)" xlink:href="#aB"/><use transform="matrix(0.013333333333333329,0,0,0.013333333333333329,57.17333333333332,0)" xlink:href="#aJ"/><use transform="matrix(0.013333333333333329,0,0,0.013333333333333329,65.01333333333332,0)" xlink:href="#be"/><use transform="matrix(0.013333333333333329,0,0,0.013333333333333329,72.94666666666666,0)" xlink:href="#aD"/><use transform="matrix(0.013333333333333329,0,0,0.013333333333333329,80.10666666666665,0)" xlink:href="#aH"/><use transform="matrix(0.013333333333333329,0,0,0.013333333333333329,84.75999999999999,0)" xlink:href="#aI"/><use transform="matrix(0.013333333333333329,0,0,0.013333333333333329,88.39999999999999,0)" xlink:href="#az"/><use transform="matrix(0.013333333333333329,0,0,0.013333333333333329,95.96,0)" xlink:href="#aJ"/><use transform="matrix(0.013333333333333329,0,0,0.013333333333333329,103.8,0)" xlink:href="#aN"/><use transform="matrix(0.013333333333333329,0,0,0.013333333333333329,110.11999999999999,0)" xlink:href="#bk"/></g><g id="U"><use transform="matrix(0.013333333333333329,0,0,0.013333333333333329,0,0)" xlink:href="#aC"/><use transform="matrix(0.013333333333333329,0,0,0.013333333333333329,7.839999999999997,0)" xlink:href="#aS"/><use transform="matrix(0.013333333333333329,0,0,0.013333333333333329,15.759999999999994,0)" xlink:href="#aT"/><use transform="matrix(0.013333333333333329,0,0,0.013333333333333329,20.973333333333326,0)" xlink:href="#aK"/><use transform="matrix(0.013333333333333329,0,0,0.013333333333333329,26.90666666666666,0)" xlink:href="#aL"/><use transform="matrix(0.013333333333333329,0,0,0.013333333333333329,34.746666666666655,0)" xlink:href="#aD"/><use transform="matrix(0.013333333333333329,0,0,0.013333333333333329,41.90666666666665,0)" xlink:href="#aN"/><use transform="matrix(0.013333333333333329,0,0,0.013333333333333329,48.22666666666665,0)" xlink:href="#aB"/></g><g id="V"><use transform="matrix(0.013333333333333329,0,0,0.013333333333333329,0,0)" xlink:href="#bb"/><use transform="matrix(0.013333333333333329,0,0,0.013333333333333329,3.2133333333333325,0)" xlink:href="#aH"/><use transform="matrix(0.013333333333333329,0,0,0.013333333333333329,7.8666666666666645,0)" xlink:href="#aB"/><use transform="matrix(0.013333333333333329,0,0,0.013333333333333329,15.133333333333328,0)" xlink:href="#aA"/></g><g id="W"><use transform="matrix(0.013333333333333329,0,0,0.013333333333333329,0,0)" xlink:href="#bb"/><use transform="matrix(0.013333333333333329,0,0,0.013333333333333329,3.2133333333333325,0)" xlink:href="#aH"/><use transform="matrix(0.013333333333333329,0,0,0.013333333333333329,7.8666666666666645,0)" xlink:href="#aB"/><use transform="matrix(0.013333333333333329,0,0,0.013333333333333329,15.133333333333328,0)" xlink:href="#aA"/></g><path fill="#333" d="M665-582c-45-51-123-90-213-91-166-2-296 129-296 301 0 219 220 369 428 270v-217H410v-82h255v353C406 125 71-70 71-372c0-218 167-392 378-388 76 0 148 21 216 64v114" id="bl"/><g id="X"><use transform="matrix(0.013333333333333329,0,0,0.013333333333333329,0,0)" xlink:href="#bl"/><use transform="matrix(0.013333333333333329,0,0,0.013333333333333329,9.866666666666664,0)" xlink:href="#az"/><use transform="matrix(0.013333333333333329,0,0,0.013333333333333329,17.426666666666662,0)" xlink:href="#aB"/><use transform="matrix(0.013333333333333329,0,0,0.013333333333333329,24.61333333333333,0)" xlink:href="#aN"/></g><g id="Y"><use transform="matrix(0.013333333333333329,0,0,0.013333333333333329,0,0)" xlink:href="#aU"/><use transform="matrix(0.013333333333333329,0,0,0.013333333333333329,8.666666666666664,0)" xlink:href="#aD"/><use transform="matrix(0.013333333333333329,0,0,0.013333333333333329,15.82666666666666,0)" xlink:href="#aT"/><use transform="matrix(0.013333333333333329,0,0,0.013333333333333329,21.346666666666657,0)" xlink:href="#aH"/></g><g id="Z"><use transform="matrix(0.013333333333333329,0,0,0.013333333333333329,0,0)" xlink:href="#aU"/><use transform="matrix(0.013333333333333329,0,0,0.013333333333333329,8.906666666666665,0)" xlink:href="#aL"/><use transform="matrix(0.013333333333333329,0,0,0.013333333333333329,16.746666666666663,0)" xlink:href="#az"/><use transform="matrix(0.013333333333333329,0,0,0.013333333333333329,24.30666666666666,0)" xlink:href="#az"/><use transform="matrix(0.013333333333333329,0,0,0.013333333333333329,31.78666666666666,0)" xlink:href="#aN"/><use transform="matrix(0.013333333333333329,0,0,0.013333333333333329,38.10666666666666,0)" xlink:href="#aB"/></g><path fill="#333" d="M595-90V30L166-385V0H75v-750h91v315l308-315h118L260-413" id="bm"/><g id="aa"><use transform="matrix(0.013333333333333329,0,0,0.013333333333333329,0,0)" xlink:href="#bm"/><use transform="matrix(0.013333333333333329,0,0,0.013333333333333329,7.9066666666666645,0)" xlink:href="#aB"/><use transform="matrix(0.013333333333333329,0,0,0.013333333333333329,15.173333333333328,0)" xlink:href="#aB"/><use transform="matrix(0.013333333333333329,0,0,0.013333333333333329,22.43999999999999,0)" xlink:href="#aG"/></g><path fill="#333" d="M331-750c114-3 213 85 209 200 0 75-32 130-96 164 85 20 153 86 153 187C600-84 504 0 390 0H75v-750h256zm-10 337c68 2 128-61 128-129s-60-127-128-127H166v256h155zm185 203c0-67-60-127-128-127H166v256h212c68 2 128-61 128-129" id="bn"/><g id="ab"><use transform="matrix(0.013333333333333329,0,0,0.013333333333333329,0,0)" xlink:href="#bn"/><use transform="matrix(0.013333333333333329,0,0,0.013333333333333329,8.599999999999998,0)" xlink:href="#aT"/><use transform="matrix(0.013333333333333329,0,0,0.013333333333333329,13.813333333333329,0)" xlink:href="#az"/><use transform="matrix(0.013333333333333329,0,0,0.013333333333333329,21.373333333333328,0)" xlink:href="#bi"/><use transform="matrix(0.013333333333333329,0,0,0.013333333333333329,30.51999999999999,0)" xlink:href="#aN"/><use transform="matrix(0.013333333333333329,0,0,0.013333333333333329,36.83999999999999,0)" xlink:href="#aI"/><use transform="matrix(0.013333333333333329,0,0,0.013333333333333329,40.47999999999999,0)" xlink:href="#aJ"/><use transform="matrix(0.013333333333333329,0,0,0.013333333333333329,48.319999999999986,0)" xlink:href="#aE"/></g><g id="ac"><use transform="matrix(0.013333333333333329,0,0,0.013333333333333329,0,0)" xlink:href="#az"/><use transform="matrix(0.013333333333333329,0,0,0.013333333333333329,7.559999999999998,0)" xlink:href="#aT"/></g><g id="ad"><use transform="matrix(0.013333333333333329,0,0,0.013333333333333329,0,0)" xlink:href="#bl"/><use transform="matrix(0.013333333333333329,0,0,0.013333333333333329,9.866666666666664,0)" xlink:href="#az"/></g><g id="ae"><use transform="matrix(0.013333333333333329,0,0,0.013333333333333329,0,0)" xlink:href="#aU"/><use transform="matrix(0.013333333333333329,0,0,0.013333333333333329,8.906666666666665,0)" xlink:href="#aL"/><use transform="matrix(0.013333333333333329,0,0,0.013333333333333329,16.746666666666663,0)" xlink:href="#aB"/><use transform="matrix(0.013333333333333329,0,0,0.013333333333333329,24.01333333333333,0)" xlink:href="#aK"/><use transform="matrix(0.013333333333333329,0,0,0.013333333333333329,29.94666666666666,0)" xlink:href="#aX"/></g><g id="af"><use transform="matrix(0.013333333333333329,0,0,0.013333333333333329,0,0)" xlink:href="#aF"/><use transform="matrix(0.013333333333333329,0,0,0.013333333333333329,11.119999999999996,0)" xlink:href="#aS"/><use transform="matrix(0.013333333333333329,0,0,0.013333333333333329,19.039999999999992,0)" xlink:href="#aH"/></g><g id="ag"><use transform="matrix(0.013333333333333329,0,0,0.013333333333333329,0,0)" xlink:href="#aD"/><use transform="matrix(0.013333333333333329,0,0,0.013333333333333329,7.1599999999999975,0)" xlink:href="#aJ"/><use transform="matrix(0.013333333333333329,0,0,0.013333333333333329,14.999999999999995,0)" xlink:href="#be"/></g><g id="ah"><use transform="matrix(0.013333333333333329,0,0,0.013333333333333329,0,0)" xlink:href="#aC"/><use transform="matrix(0.013333333333333329,0,0,0.013333333333333329,7.1599999999999975,0)" xlink:href="#aD"/><use transform="matrix(0.013333333333333329,0,0,0.013333333333333329,14.319999999999995,0)" xlink:href="#aQ"/></g><g id="ai"><use transform="matrix(0.013333333333333329,0,0,0.013333333333333329,0,0)" xlink:href="#aU"/><use transform="matrix(0.013333333333333329,0,0,0.013333333333333329,8.666666666666664,0)" xlink:href="#az"/><use transform="matrix(0.013333333333333329,0,0,0.013333333333333329,16.226666666666663,0)" xlink:href="#aA"/><use transform="matrix(0.013333333333333329,0,0,0.013333333333333329,28.24,0)" xlink:href="#aA"/><use transform="matrix(0.013333333333333329,0,0,0.013333333333333329,40.25333333333332,0)" xlink:href="#aS"/><use transform="matrix(0.013333333333333329,0,0,0.013333333333333329,48.17333333333332,0)" xlink:href="#aJ"/><use transform="matrix(0.013333333333333329,0,0,0.013333333333333329,56.013333333333314,0)" xlink:href="#aI"/><use transform="matrix(0.013333333333333329,0,0,0.013333333333333329,59.49333333333331,0)" xlink:href="#aH"/><use transform="matrix(0.013333333333333329,0,0,0.013333333333333329,64.03999999999998,0)" xlink:href="#aQ"/></g><g id="aj"><use transform="matrix(0.013333333333333329,0,0,0.013333333333333329,0,0)" xlink:href="#aC"/><use transform="matrix(0.013333333333333329,0,0,0.013333333333333329,7.1599999999999975,0)" xlink:href="#aD"/><use transform="matrix(0.013333333333333329,0,0,0.013333333333333329,14.319999999999995,0)" xlink:href="#aE"/><use transform="matrix(0.013333333333333329,0,0,0.013333333333333329,22.26666666666666,0)" xlink:href="#aB"/><use transform="matrix(0.013333333333333329,0,0,0.013333333333333329,29.533333333333324,0)" xlink:href="#bc"/></g><g id="ak"><use transform="matrix(0.013333333333333329,0,0,0.013333333333333329,0,0)" xlink:href="#aK"/><use transform="matrix(0.013333333333333329,0,0,0.013333333333333329,5.933333333333332,0)" xlink:href="#aP"/><use transform="matrix(0.013333333333333329,0,0,0.013333333333333329,10.25333333333333,0)" xlink:href="#az"/><use transform="matrix(0.013333333333333329,0,0,0.013333333333333329,17.77333333333333,0)" xlink:href="#aH"/><use transform="matrix(0.013333333333333329,0,0,0.013333333333333329,22.426666666666662,0)" xlink:href="#aL"/><use transform="matrix(0.013333333333333329,0,0,0.013333333333333329,30.266666666666655,0)" xlink:href="#aI"/><use transform="matrix(0.013333333333333329,0,0,0.013333333333333329,33.90666666666666,0)" xlink:href="#aJ"/><use transform="matrix(0.013333333333333329,0,0,0.013333333333333329,41.746666666666655,0)" xlink:href="#aE"/></g><g id="al"><use transform="matrix(0.013333333333333329,0,0,0.013333333333333329,0,0)" xlink:href="#aG"/><use transform="matrix(0.013333333333333329,0,0,0.013333333333333329,7.933333333333331,0)" xlink:href="#aS"/><use transform="matrix(0.013333333333333329,0,0,0.013333333333333329,15.853333333333328,0)" xlink:href="#aT"/><use transform="matrix(0.013333333333333329,0,0,0.013333333333333329,21.06666666666666,0)" xlink:href="#aK"/><use transform="matrix(0.013333333333333329,0,0,0.013333333333333329,26.999999999999993,0)" xlink:href="#aL"/><use transform="matrix(0.013333333333333329,0,0,0.013333333333333329,34.83999999999999,0)" xlink:href="#aD"/><use transform="matrix(0.013333333333333329,0,0,0.013333333333333329,41.999999999999986,0)" xlink:href="#aN"/><use transform="matrix(0.013333333333333329,0,0,0.013333333333333329,48.319999999999986,0)" xlink:href="#aB"/><use transform="matrix(0.013333333333333329,0,0,0.013333333333333329,55.58666666666665,0)" xlink:href="#be"/></g><g id="am"><use transform="matrix(0.013333333333333329,0,0,0.013333333333333329,0,0)" xlink:href="#aO"/><use transform="matrix(0.013333333333333329,0,0,0.013333333333333329,7.933333333333331,0)" xlink:href="#aQ"/></g><g id="an"><use transform="matrix(0.013333333333333329,0,0,0.013333333333333329,0,0)" xlink:href="#aG"/><use transform="matrix(0.013333333333333329,0,0,0.013333333333333329,7.933333333333331,0)" xlink:href="#aB"/><use transform="matrix(0.013333333333333329,0,0,0.013333333333333329,15.199999999999996,0)" xlink:href="#az"/><use transform="matrix(0.013333333333333329,0,0,0.013333333333333329,22.759999999999994,0)" xlink:href="#aG"/><use transform="matrix(0.013333333333333329,0,0,0.013333333333333329,30.693333333333324,0)" xlink:href="#aP"/><use transform="matrix(0.013333333333333329,0,0,0.013333333333333329,35.01333333333332,0)" xlink:href="#aB"/></g><g id="ao"><use transform="matrix(0.013333333333333329,0,0,0.013333333333333329,0,0)" xlink:href="#bi"/><use transform="matrix(0.013333333333333329,0,0,0.013333333333333329,9.559999999999997,0)" xlink:href="#aI"/><use transform="matrix(0.013333333333333329,0,0,0.013333333333333329,13.039999999999996,0)" xlink:href="#aH"/><use transform="matrix(0.013333333333333329,0,0,0.013333333333333329,17.693333333333328,0)" xlink:href="#aL"/></g><g id="ap"><use transform="matrix(0.013333333333333329,0,0,0.013333333333333329,0,0)" xlink:href="#aN"/><use transform="matrix(0.013333333333333329,0,0,0.013333333333333329,6.319999999999998,0)" xlink:href="#aI"/><use transform="matrix(0.013333333333333329,0,0,0.013333333333333329,9.959999999999997,0)" xlink:href="#aA"/><use transform="matrix(0.013333333333333329,0,0,0.013333333333333329,21.97333333333333,0)" xlink:href="#aI"/><use transform="matrix(0.013333333333333329,0,0,0.013333333333333329,25.61333333333333,0)" xlink:href="#aP"/><use transform="matrix(0.013333333333333329,0,0,0.013333333333333329,29.93333333333333,0)" xlink:href="#aD"/><use transform="matrix(0.013333333333333329,0,0,0.013333333333333329,37.09333333333333,0)" xlink:href="#aT"/></g><g id="aq"><use transform="matrix(0.013333333333333329,0,0,0.013333333333333329,0,0)" xlink:href="#aO"/><use transform="matrix(0.013333333333333329,0,0,0.013333333333333329,7.933333333333331,0)" xlink:href="#az"/><use transform="matrix(0.013333333333333329,0,0,0.013333333333333329,15.493333333333329,0)" xlink:href="#be"/><use transform="matrix(0.013333333333333329,0,0,0.013333333333333329,23.42666666666666,0)" xlink:href="#aI"/><use transform="matrix(0.013333333333333329,0,0,0.013333333333333329,27.066666666666656,0)" xlink:href="#aB"/><use transform="matrix(0.013333333333333329,0,0,0.013333333333333329,34.25333333333332,0)" xlink:href="#aN"/></g><g id="ar"><use transform="matrix(0.013333333333333329,0,0,0.013333333333333329,0,0)" xlink:href="#aD"/><use transform="matrix(0.013333333333333329,0,0,0.013333333333333329,7.1599999999999975,0)" xlink:href="#aN"/></g><g id="as"><use transform="matrix(0.013333333333333329,0,0,0.013333333333333329,0,0)" xlink:href="#aQ"/><use transform="matrix(0.013333333333333329,0,0,0.013333333333333329,7.919999999999997,0)" xlink:href="#az"/><use transform="matrix(0.013333333333333329,0,0,0.013333333333333329,15.479999999999995,0)" xlink:href="#aS"/></g><g id="at"><use transform="matrix(0.013333333333333329,0,0,0.013333333333333329,0,0)" xlink:href="#aK"/><use transform="matrix(0.013333333333333329,0,0,0.013333333333333329,5.839999999999998,0)" xlink:href="#aD"/><use transform="matrix(0.013333333333333329,0,0,0.013333333333333329,12.999999999999996,0)" xlink:href="#aJ"/></g><g id="au"><use transform="matrix(0.013333333333333329,0,0,0.013333333333333329,0,0)" xlink:href="#aN"/><use transform="matrix(0.013333333333333329,0,0,0.013333333333333329,6.319999999999998,0)" xlink:href="#aL"/><use transform="matrix(0.013333333333333329,0,0,0.013333333333333329,14.159999999999995,0)" xlink:href="#aD"/><use transform="matrix(0.013333333333333329,0,0,0.013333333333333329,21.319999999999993,0)" xlink:href="#aT"/><use transform="matrix(0.013333333333333329,0,0,0.013333333333333329,26.533333333333324,0)" xlink:href="#aB"/></g><g id="av"><use transform="matrix(0.013333333333333329,0,0,0.013333333333333329,0,0)" xlink:href="#aT"/><use transform="matrix(0.013333333333333329,0,0,0.013333333333333329,5.213333333333332,0)" xlink:href="#aB"/><use transform="matrix(0.013333333333333329,0,0,0.013333333333333329,12.479999999999997,0)" xlink:href="#bh"/><use transform="matrix(0.013333333333333329,0,0,0.013333333333333329,19.159999999999997,0)" xlink:href="#aI"/><use transform="matrix(0.013333333333333329,0,0,0.013333333333333329,22.799999999999997,0)" xlink:href="#aB"/><use transform="matrix(0.013333333333333329,0,0,0.013333333333333329,30.066666666666663,0)" xlink:href="#bi"/><use transform="matrix(0.013333333333333329,0,0,0.013333333333333329,39.213333333333324,0)" xlink:href="#aN"/><use transform="matrix(0.013333333333333329,0,0,0.013333333333333329,45.533333333333324,0)" xlink:href="#bd"/></g><g id="aw"><use transform="matrix(0.013333333333333329,0,0,0.013333333333333329,0,0)" xlink:href="#aT"/><use transform="matrix(0.013333333333333329,0,0,0.013333333333333329,5.213333333333332,0)" xlink:href="#aB"/><use transform="matrix(0.013333333333333329,0,0,0.013333333333333329,12.479999999999997,0)" xlink:href="#aK"/><use transform="matrix(0.013333333333333329,0,0,0.013333333333333329,18.319999999999993,0)" xlink:href="#az"/><use transform="matrix(0.013333333333333329,0,0,0.013333333333333329,25.879999999999992,0)" xlink:href="#aA"/><use transform="matrix(0.013333333333333329,0,0,0.013333333333333329,37.893333333333324,0)" xlink:href="#aA"/><use transform="matrix(0.013333333333333329,0,0,0.013333333333333329,49.90666666666665,0)" xlink:href="#aB"/><use transform="matrix(0.013333333333333329,0,0,0.013333333333333329,57.17333333333332,0)" xlink:href="#aJ"/><use transform="matrix(0.013333333333333329,0,0,0.013333333333333329,65.01333333333332,0)" xlink:href="#be"/><use transform="matrix(0.013333333333333329,0,0,0.013333333333333329,72.94666666666666,0)" xlink:href="#aD"/><use transform="matrix(0.013333333333333329,0,0,0.013333333333333329,80.10666666666665,0)" xlink:href="#aH"/><use transform="matrix(0.013333333333333329,0,0,0.013333333333333329,84.75999999999999,0)" xlink:href="#aI"/><use transform="matrix(0.013333333333333329,0,0,0.013333333333333329,88.39999999999999,0)" xlink:href="#az"/><use transform="matrix(0.013333333333333329,0,0,0.013333333333333329,95.96,0)" xlink:href="#aJ"/><use transform="matrix(0.013333333333333329,0,0,0.013333333333333329,103.8,0)" xlink:href="#aN"/><use transform="matrix(0.013333333333333329,0,0,0.013333333333333329,110.11999999999999,0)" xlink:href="#bd"/></g><path fill="#333" d="M518-500L309-250 518 0H410L256-185 102 0H-6l208-250L-6-500h106l156 186 155-186h107" id="bo"/><g id="ax"><use transform="matrix(0.013333333333333329,0,0,0.013333333333333329,0,0)" xlink:href="#aB"/><use transform="matrix(0.013333333333333329,0,0,0.013333333333333329,7.266666666666664,0)" xlink:href="#bo"/><use transform="matrix(0.013333333333333329,0,0,0.013333333333333329,14.093333333333328,0)" xlink:href="#aG"/><use transform="matrix(0.013333333333333329,0,0,0.013333333333333329,22.02666666666666,0)" xlink:href="#aB"/><use transform="matrix(0.013333333333333329,0,0,0.013333333333333329,29.293333333333322,0)" xlink:href="#aT"/><use transform="matrix(0.013333333333333329,0,0,0.013333333333333329,34.61333333333332,0)" xlink:href="#aI"/><use transform="matrix(0.013333333333333329,0,0,0.013333333333333329,38.25333333333332,0)" xlink:href="#aB"/><use transform="matrix(0.013333333333333329,0,0,0.013333333333333329,45.51999999999999,0)" xlink:href="#aJ"/><use transform="matrix(0.013333333333333329,0,0,0.013333333333333329,53.359999999999985,0)" xlink:href="#aK"/><use transform="matrix(0.013333333333333329,0,0,0.013333333333333329,59.19999999999998,0)" xlink:href="#aB"/><use transform="matrix(0.013333333333333329,0,0,0.013333333333333329,66.38666666666664,0)" xlink:href="#aN"/></g></defs></g></svg>