<svg width="32" height="62" viewBox="0 0 32 62" fill="none" xmlns="http://www.w3.org/2000/svg">
<circle cx="16" cy="46" r="16" fill="#F8F3F0"/>
<path d="M16.25 55.25C15.35 55.25 14.525 55.025 13.775 54.575C13.0417 54.1083 12.45 53.5 12 52.75C11.5667 51.9833 11.35 51.1417 11.35 50.225V49.075C11.35 48.9917 11.3917 48.95 11.475 48.95H14.275C14.3417 48.95 14.375 48.9917 14.375 49.075V50.225C14.375 50.775 14.5583 51.25 14.925 51.65C15.2917 52.0333 15.7333 52.225 16.25 52.225C16.7667 52.225 17.2083 52.025 17.575 51.625C17.9417 51.225 18.125 50.7583 18.125 50.225C18.125 49.6083 17.725 49.075 16.925 48.625C16.6583 48.475 16.2417 48.2417 15.675 47.925C15.1083 47.6083 14.575 47.3083 14.075 47.025C13.1583 46.4917 12.475 45.825 12.025 45.025C11.5917 44.2083 11.375 43.2917 11.375 42.275C11.375 41.3417 11.6 40.5083 12.05 39.775C12.5 39.025 13.0917 38.4333 13.825 38C14.575 37.5667 15.3833 37.35 16.25 37.35C17.1333 37.35 17.9417 37.575 18.675 38.025C19.425 38.4583 20.0167 39.05 20.45 39.8C20.9 40.5333 21.125 41.3583 21.125 42.275V44.325C21.125 44.3917 21.0917 44.425 21.025 44.425H18.225C18.1583 44.425 18.125 44.3917 18.125 44.325L18.1 42.275C18.1 41.6917 17.9167 41.2167 17.55 40.85C17.1833 40.4833 16.75 40.3 16.25 40.3C15.7333 40.3 15.2917 40.5 14.925 40.9C14.5583 41.2833 14.375 41.7417 14.375 42.275C14.375 42.825 14.4917 43.2833 14.725 43.65C14.9583 44.0167 15.3833 44.3667 16 44.7C16.0833 44.75 16.2417 44.8417 16.475 44.975C16.725 45.0917 16.9917 45.2333 17.275 45.4C17.5583 45.55 17.8083 45.6833 18.025 45.8C18.2583 45.9167 18.4 45.9917 18.45 46.025C19.2833 46.4917 19.9417 47.0667 20.425 47.75C20.9083 48.4167 21.15 49.2417 21.15 50.225C21.15 51.175 20.925 52.0333 20.475 52.8C20.0417 53.55 19.45 54.15 18.7 54.6C17.9667 55.0333 17.15 55.25 16.25 55.25Z" fill="black"/>
</svg>
