<svg width="571" height="428" viewBox="0 0 571 428" fill="none" xmlns="http://www.w3.org/2000/svg">
<path fill-rule="evenodd" clip-rule="evenodd" d="M328.55 35.3109C328.547 34.8109 328.31 34.3419 327.905 34.0451C325.076 32.0082 320.891 30.8083 313.504 31.0633C312.964 31.0819 312.504 31.4589 312.379 31.9833C311.813 34.384 310.289 40.8566 310.289 40.8566L328.588 41.9693C328.588 41.9693 328.563 37.2078 328.55 35.3109Z" fill="#E0290A"/>
<path fill-rule="evenodd" clip-rule="evenodd" d="M480.092 67.522C479.72 51.9995 467.022 39.6105 451.488 39.6105C380.253 39.6105 192.638 39.6105 124.113 39.6105C109.931 39.6105 98.3532 50.9444 98.0586 65.1149C96.8961 121.053 94.225 249.571 94.225 249.571H484.473C484.473 249.571 481.469 124.649 480.092 67.522Z" fill="#E8E8E8"/>
<path d="M287.022 200.869H279.323V250.939H287.022V200.869Z" fill="#F3542D"/>
<path d="M294.852 201.021H286.936V250.894H294.852V201.021Z" fill="#FFA130"/>
<path d="M302.9 201.079H294.67V251.016H302.9V201.079Z" fill="#FAD73E"/>
<path d="M310.712 201.062H302.796V250.936H310.712V201.062Z" fill="#57B17D" stroke="#57B17D" stroke-width="0.601181" stroke-miterlimit="1.5" stroke-linecap="round" stroke-linejoin="round"/>
<path d="M318.706 201.35H310.79V250.967H318.706V201.35Z" fill="#7BBDED" stroke="#7BBDED" stroke-width="0.599634" stroke-miterlimit="1.5" stroke-linecap="round" stroke-linejoin="round"/>
<path fill-rule="evenodd" clip-rule="evenodd" d="M495.082 253.278H80.9736L95.3724 249.91H485.528L495.082 253.278Z" fill="white" stroke="white" stroke-width="0.480804" stroke-miterlimit="1.5" stroke-linecap="round" stroke-linejoin="round"/>
<path fill-rule="evenodd" clip-rule="evenodd" d="M495.101 253.327H80.9362V354.689C80.9362 357.423 82.0222 360.04 83.9555 361.974C85.8887 363.907 88.5106 364.99 91.2444 364.99C148.557 364.99 427.451 364.99 484.785 364.99C490.481 364.99 495.101 360.376 495.101 354.681C495.101 327.034 495.101 253.327 495.101 253.327Z" fill="#D7D7D5" stroke="#D7D7D5" stroke-width="1.00335" stroke-miterlimit="1.5" stroke-linecap="round" stroke-linejoin="round"/>
<path d="M465.566 300.294H128.046V319.27H465.566V300.294Z" fill="black" stroke="black" stroke-width="0.974146" stroke-miterlimit="1.5" stroke-linecap="round" stroke-linejoin="round"/>
<path d="M133.027 245.594C147.483 245.594 159.202 233.813 159.202 219.281C159.202 204.75 147.483 192.969 133.027 192.969C118.572 192.969 106.853 204.75 106.853 219.281C106.853 233.813 118.572 245.594 133.027 245.594Z" fill="#EBECEC" stroke="white" stroke-width="4.26782" stroke-miterlimit="1.5" stroke-linecap="round" stroke-linejoin="round"/>
<path d="M132.91 240.991C144.864 240.991 154.555 231.235 154.555 219.199C154.555 207.164 144.864 197.407 132.91 197.407C120.955 197.407 111.264 207.164 111.264 219.199C111.264 231.235 120.955 240.991 132.91 240.991Z" fill="#FF5252" fill-opacity="0.99" stroke="black" stroke-opacity="0.99" stroke-width="7.89109" stroke-miterlimit="1.5" stroke-linecap="round" stroke-linejoin="round"/>
<path d="M298.563 203.429C340.782 203.429 375.008 169.474 375.008 127.588C375.008 85.7026 340.782 51.7477 298.563 51.7477C256.343 51.7477 222.117 85.7026 222.117 127.588C222.117 169.474 256.343 203.429 298.563 203.429Z" fill="#A4A39B" stroke="#A4A39B" stroke-width="3.90668" stroke-miterlimit="1.5" stroke-linecap="round" stroke-linejoin="round"/>
<path d="M298.797 199.279C341.588 199.279 376.278 165.005 376.278 122.725C376.278 80.4456 341.588 46.1713 298.797 46.1713C256.005 46.1713 221.315 80.4456 221.315 122.725C221.315 165.005 256.005 199.279 298.797 199.279Z" fill="#D8D8D6" stroke="#D8D8D6" stroke-width="4.2367" stroke-miterlimit="1.5" stroke-linecap="round" stroke-linejoin="round"/>
<path d="M299.026 193.166C336.364 193.166 366.633 162.954 366.633 125.686C366.633 88.418 336.364 58.2062 299.026 58.2062C261.687 58.2062 231.418 88.418 231.418 125.686C231.418 162.954 261.687 193.166 299.026 193.166Z" fill="#222222" stroke="white" stroke-width="4.24513" stroke-miterlimit="1.5" stroke-linecap="round" stroke-linejoin="round"/>
<path d="M299.026 158.176C317.365 158.176 332.231 143.63 332.231 125.686C332.231 107.743 317.365 93.1964 299.026 93.1964C280.688 93.1964 265.822 107.743 265.822 125.686C265.822 143.63 280.688 158.176 299.026 158.176Z" fill="#277D4C" fill-opacity="0.3"/>
<path d="M299.026 167.519C322.639 167.519 341.78 148.789 341.78 125.685C341.78 102.581 322.639 83.8521 299.026 83.8521C275.414 83.8521 256.272 102.581 256.272 125.685C256.272 148.789 275.414 167.519 299.026 167.519Z" fill="black" fill-opacity="0.3"/>
<path d="M299.028 153.375C314.594 153.375 327.214 140.978 327.214 125.686C327.214 110.393 314.594 97.9958 299.028 97.9958C283.461 97.9958 270.842 110.393 270.842 125.686C270.842 140.978 283.461 153.375 299.028 153.375Z" fill="black" stroke="black" stroke-width="1.00098" stroke-miterlimit="1.5" stroke-linecap="round" stroke-linejoin="round"/>
<path fill-rule="evenodd" clip-rule="evenodd" d="M299.028 97.9958C314.583 97.9958 327.213 110.403 327.213 125.686C327.213 131.464 325.407 136.832 322.32 141.274C322.157 141.507 321.992 141.739 321.822 141.968C321.692 142.141 321.367 142.403 321.367 142.403L280.201 105.198C280.201 105.198 280.386 104.922 280.521 104.807C285.474 100.566 291.948 97.9958 299.028 97.9958Z" fill="white" fill-opacity="0.2"/>
<path d="M322.022 142.118L322.023 142.117C322.195 141.886 322.362 141.652 322.525 141.416C325.64 136.935 327.463 131.517 327.463 125.686C327.463 110.261 314.717 97.7458 299.028 97.7458C291.887 97.7458 285.355 100.338 280.358 104.617C280.268 104.694 280.174 104.811 280.111 104.895C280.077 104.939 280.048 104.98 280.027 105.009C280.017 105.024 280.009 105.036 280.003 105.044L279.996 105.054L279.994 105.057L279.994 105.058L279.993 105.058L279.993 105.058L279.993 105.058L280.201 105.198L279.993 105.058C279.924 105.161 279.941 105.3 280.033 105.383L321.199 142.588C321.29 142.67 321.428 142.674 321.524 142.597L321.367 142.403L321.524 142.597L321.524 142.597L321.524 142.597L321.524 142.597L321.525 142.596L321.528 142.594L321.54 142.584C321.549 142.576 321.563 142.565 321.58 142.551C321.614 142.522 321.661 142.482 321.712 142.437C321.81 142.35 321.941 142.226 322.022 142.118Z" stroke="white" stroke-opacity="0.2" stroke-width="0.5" stroke-miterlimit="1.5" stroke-linecap="round" stroke-linejoin="round"/>
<path d="M372.671 204.431C380.155 204.431 386.221 198.293 386.221 190.722C386.221 183.152 380.155 177.014 372.671 177.014C365.188 177.014 359.121 183.152 359.121 190.722C359.121 198.293 365.188 204.431 372.671 204.431Z" fill="#5E5E5E" stroke="#5E5E5E" stroke-width="1.0035" stroke-miterlimit="1.5" stroke-linecap="round" stroke-linejoin="round"/>
<path d="M373.073 200.152C378.675 200.152 383.215 195.425 383.215 189.595C383.215 183.765 378.675 179.039 373.073 179.039C367.472 179.039 362.931 183.765 362.931 189.595C362.931 195.425 367.472 200.152 373.073 200.152Z" fill="#242424" stroke="#242424" stroke-width="0.990212" stroke-miterlimit="1.5" stroke-linecap="round" stroke-linejoin="round"/>
<path d="M373.031 197.591C377.469 197.591 381.067 193.985 381.067 189.538C381.067 185.09 377.469 181.484 373.031 181.484C368.593 181.484 364.995 185.09 364.995 189.538C364.995 193.985 368.593 197.591 373.031 197.591Z" fill="black" stroke="#3F3B3B" stroke-width="0.386957" stroke-miterlimit="1.5" stroke-linecap="round" stroke-linejoin="round"/>
<path fill-rule="evenodd" clip-rule="evenodd" d="M182.828 62.9335C182.828 60.3546 181.803 57.8811 179.978 56.0574C178.154 54.2337 175.678 53.2089 173.098 53.2089H122.773C117.447 53.2089 113.13 57.5239 113.13 62.8468C113.13 85.6536 113.13 142.733 113.13 165.62C113.13 168.198 114.154 170.669 115.978 172.492C117.801 174.315 120.275 175.338 122.854 175.338H173.098C175.678 175.338 178.154 174.314 179.978 172.49C181.803 170.666 182.828 168.193 182.828 165.614C182.828 142.751 182.828 85.7966 182.828 62.9335Z" fill="black" stroke="#3F3B3B" stroke-width="0.379552" stroke-miterlimit="1.5" stroke-linecap="round" stroke-linejoin="round"/>
<path fill-rule="evenodd" clip-rule="evenodd" d="M177.154 68.0589C177.154 62.6878 172.798 58.334 167.424 58.334C156.459 58.334 138.746 58.334 127.817 58.334C125.26 58.334 122.807 59.3493 120.998 61.157C119.19 62.9644 118.174 65.4158 118.174 67.9716V162.528C118.174 167.895 122.528 172.246 127.898 172.246C138.832 172.246 156.486 172.246 167.424 172.246C172.798 172.246 177.154 167.892 177.154 162.521C177.154 141.005 177.154 89.5749 177.154 68.0589Z" fill="#98999D"/>
<path d="M177.154 82.3257H118.174V154.207H177.154V82.3257Z" fill="black"/>
<path d="M165.725 58.2056H130.032V172.085H165.725V58.2056Z" fill="white" fill-opacity="0.51"/>
<path d="M207.537 111.483C212.767 111.483 217.006 107.243 217.006 102.012C217.006 96.7817 212.767 92.5415 207.537 92.5415C202.308 92.5415 198.068 96.7817 198.068 102.012C198.068 107.243 202.308 111.483 207.537 111.483Z" fill="#494949"/>
<path d="M207.536 110.273C212.172 110.273 215.931 106.574 215.931 102.012C215.931 97.4497 212.172 93.7512 207.536 93.7512C202.901 93.7512 199.142 97.4497 199.142 102.012C199.142 106.574 202.901 110.273 207.536 110.273Z" fill="black"/>
<path fill-rule="evenodd" clip-rule="evenodd" d="M207.536 93.7516C212.169 93.7516 215.93 97.4531 215.93 102.012C215.93 103.955 215.248 105.741 214.106 107.152C214.096 107.164 214.067 107.198 214.067 107.198L201.726 96.0532C201.726 96.0532 201.739 96.0401 201.746 96.0337C203.253 94.6201 205.292 93.7516 207.536 93.7516Z" fill="white" fill-opacity="0.13"/>
<path fill-rule="evenodd" clip-rule="evenodd" d="M466.24 60.9734C466.24 54.7252 461.174 49.6605 454.921 49.6605H398.498C392.244 49.6605 387.176 54.7266 387.176 60.9761V118.318C387.176 124.566 392.244 129.631 398.495 129.631H454.921C461.174 129.631 466.24 124.566 466.24 118.318C466.24 103.1 466.24 76.1919 466.24 60.9734Z" fill="#020000"/>
<path fill-rule="evenodd" clip-rule="evenodd" d="M407.36 108.738C407.36 110.102 407.985 111.42 409.028 112.39C409.863 113.345 411.324 113.89 412.576 113.89H441.576C442.828 113.89 444.289 113.345 445.123 112.39C446.167 111.42 446.583 110.102 446.583 108.738V83.4922C446.583 80.6434 444.288 78.3401 441.576 78.3401H412.785C409.864 78.3401 407.36 80.7039 407.36 83.6134V108.738Z" fill="black" fill-opacity="0.95"/>
<path fill-rule="evenodd" clip-rule="evenodd" d="M457.544 69.4965C457.544 67.2057 456.631 65.0085 455.011 63.3886C453.39 61.7687 451.192 60.8585 448.899 60.8585C437.403 60.8585 417.192 60.8585 405.693 60.8585C403.399 60.8585 401.198 61.769 399.578 63.3895C397.957 65.01 397.045 67.208 397.045 69.5C397.045 80.3644 397.045 98.9063 397.045 109.777C397.045 112.073 397.957 114.275 399.581 115.898C401.207 117.521 403.408 118.433 405.707 118.433C417.203 118.433 437.385 118.433 448.881 118.433C451.178 118.433 453.382 117.521 455.005 115.898C456.631 114.275 457.544 112.073 457.544 109.777C457.544 98.9052 457.544 80.3606 457.544 69.4965Z" fill="#17151F"/>
<path fill-rule="evenodd" clip-rule="evenodd" d="M431.013 82.3046C431.013 82.0234 431.242 81.7949 431.523 81.7949C431.805 81.7949 432.034 82.0234 432.034 82.3046C432.034 82.586 431.805 82.8145 431.523 82.8145C431.242 82.8145 431.013 82.586 431.013 82.3046Z" stroke="white" stroke-opacity="0.01" stroke-width="1.83" stroke-miterlimit="10" stroke-linecap="round"/>
<path d="M431.523 81.54H423.064V85.2223H431.523V82.3046" stroke="white" stroke-opacity="0.01" stroke-width="1.83" stroke-miterlimit="1.5" stroke-linecap="round" stroke-linejoin="round"/>
<path d="M431.524 81.54H423.064V85.2223H431.524V81.54Z" fill="#020202" fill-opacity="0.23"/>
<path fill-rule="evenodd" clip-rule="evenodd" d="M443.377 80.5743C443.377 79.1378 442.807 77.7601 441.791 76.7444C440.774 75.7287 439.394 75.1581 437.958 75.1581C431.754 75.1581 421.649 75.1581 415.449 75.1581C414.015 75.1581 412.638 75.7275 411.624 76.7414C410.609 77.755 410.039 79.13 410.039 80.5637V98.7286C410.039 100.162 410.609 101.537 411.624 102.551C412.638 103.565 414.015 104.134 415.449 104.134H437.958C439.394 104.134 440.774 103.564 441.791 102.548C442.807 101.532 443.377 100.155 443.377 98.718C443.377 93.5345 443.377 85.7579 443.377 80.5743Z" fill="#F1F1F1"/>
<path fill-rule="evenodd" clip-rule="evenodd" d="M457.536 69.4965C457.536 64.7259 453.665 60.8585 448.891 60.8585C433.414 60.8585 402.565 60.8585 402.565 60.8585H406.574C406.574 60.8585 458.183 108.473 457.536 105.689C457.536 105.683 457.536 105.678 457.536 105.672C457.536 105.192 457.536 82.3827 457.536 69.4965Z" fill="white" fill-opacity="0.16"/>
</svg>
